<?xml version="1.0" encoding="utf-8"?>
<!-- Generator: Adobe Illustrator 15.0.0, SVG Export Plug-In . SVG Version: 6.00 Build 0)  -->
<!DOCTYPE svg PUBLIC "-//W3C//DTD SVG 1.1//EN" "http://www.w3.org/Graphics/SVG/1.1/DTD/svg11.dtd">
<svg version="1.1" id="Layer_1" xmlns="http://www.w3.org/2000/svg" xmlns:xlink="http://www.w3.org/1999/xlink" x="0px" y="0px"
	 width="38px" height="38px" viewBox="0 0 38 38" enable-background="new 0 0 38 38" xml:space="preserve">
<path fill="#FFBDD8" d="M27.167,14c-4,0-6.918,1.165-10.46,4.707c-2.728,2.728-7.813,7.813-10.015,10.015
	C9.564,29.981,12.941,30,18,30h3.563c2.072-1.277,4.956-2,8.437-2c2.5,0,4.503,0,4.503,0L36,25.255c0,0,0-2.755,0-4.005
	C36,17.75,31.167,14,27.167,14z"/>
<path opacity="0.8" fill="#231F20" d="M30,26v2c-7.29,0-12,3.141-12,8h-2C16,29.925,21.495,26,30,26z M18,30v-2
	c-5.876,0-9.114,0-11.862-1.832L5.886,26H3c-0.805,0-0.988-0.55-1-1v-3.066C5.123,21.519,8,19.154,8,15V8H6v6H5
	c-2.485,0-5,1.374-5,4h2c0-1.582,1.962-2,3-2h0.914C5.46,18.737,3.16,20,1,20H0v5c0,1.206,0.799,3,3,3h2.289
	c1.213,0.761,2.491,1.23,3.932,1.522C8.42,30.861,8,32.381,8,34h2c0-1.556,0.52-2.98,1.463-4.175C13.318,29.99,15.436,30,18,30z
	 M15.293,17.293L12,20.586V16h-2v9.414l6.707-6.707L15.293,17.293z M12,6h-2v7.052c0.608-0.608,1.275-1.223,2-1.822V6z M24,4
	c-2.695,0-5.448,0.866-8,2.176V4h-2v5.72C17.027,7.622,20.608,6,24,6c5.514,0,10,4.486,10,10v8.745L30.043,32h2.277L36,25.255V16
	C36,9.383,30.617,4,24,4z"/>
</svg>
