<?xml version="1.0" encoding="utf-8"?>
<!-- Generator: Adobe Illustrator 15.0.0, SVG Export Plug-In . SVG Version: 6.00 Build 0)  -->
<!DOCTYPE svg PUBLIC "-//W3C//DTD SVG 1.1//EN" "http://www.w3.org/Graphics/SVG/1.1/DTD/svg11.dtd">
<svg version="1.1" id="Layer_1" xmlns="http://www.w3.org/2000/svg" xmlns:xlink="http://www.w3.org/1999/xlink" x="0px" y="0px"
	 width="38px" height="38px" viewBox="0 0 38 38" enable-background="new 0 0 38 38" xml:space="preserve">
<path fill="#FFAF6E" d="M27.082,27.871c-0.021,0.43-0.055,0.907-0.107,1.418C26.738,31.564,23.479,34,19,34
	c-4.478,0-7.738-2.436-7.974-4.711c-0.053-0.511-0.086-0.988-0.108-1.419c1.287-0.184,2.335-0.54,3.354-0.893
	C15.662,26.497,17.1,26,19,26s3.338,0.497,4.728,0.978C24.747,27.33,25.795,27.687,27.082,27.871z M32,19c0,3.131-1.646,5-4.4,5
	c-1.493,0-2.785-0.422-3.711-0.846c-0.117,0.655-0.285,1.146-0.296,1.177L22.649,24l-0.944-0.329C21.708,23.662,21.533,24,19,24
	c-0.393,0-0.712-0.01-1-0.023v-6.172C18.315,17.919,18.646,18,19,18c1.654,0,3-1.346,3-3s-1.346-3-3-3c-0.354,0-0.686,0.079-1,0.193
	V1.323c0.147-0.189,0.245-0.302,0.258-0.316L19,0.186l0.742,0.822c0.043,0.048,1.024,1.147,2.03,3.28
	c1.136,0.65,2.058,1.301,2.636,1.736c0.534,0.402,1.093,0.876,1.545,1.331l-0.001,0c-1.295,0.963-2.653,2.334-3.835,3.768
	c0.55,0.443,1,0.994,1.323,1.628c0.877-1.074,2.108-2.411,3.393-3.241l0.657-0.425l0.57,0.536C29.958,11.402,32,15.098,32,19z
	 M26,17c0-0.551-0.449-1-1-1c-0.552,0-1,0.449-1,1s0.448,1,1,1C25.551,18,26,17.551,26,17z"/>
<path opacity="0.8" fill="#231F20" d="M34,23c0,3.668-3.063,5-5.121,5c-2.193,0-3.696-0.52-5.151-1.022C22.338,26.497,20.9,26,19,26
	s-3.338,0.497-4.728,0.978C12.817,27.48,11.314,28,9.121,28C7.063,28,4,26.668,4,23v-3H2v3c0,3.634,2.345,5.926,5.047,6.701
	C7.527,34.337,12.699,38,19,38c6.302,0,11.473-3.663,11.953-8.299C33.655,28.926,36,26.634,36,23v-3h-2V23z M19,36
	c-5.028,0-9.189-2.614-9.886-6c0.002,0,0.004,0,0.006,0c2.529,0,4.269-0.602,5.805-1.132C16.272,28.402,17.436,28,19,28
	s2.728,0.402,4.074,0.868C24.61,29.398,26.35,30,28.879,30c0.002,0,0.005,0,0.007,0C28.189,33.386,24.027,36,19,36z M37,6
	c-1.478,0-2.636,0.331-3.484,0.708c-0.225-0.491-0.509-0.944-0.887-1.323C31.726,4.479,30.471,4,29,4
	c-1.523,0-3.136,0.881-4.592,2.023c-0.578-0.435-1.5-1.086-2.636-1.736c-1.006-2.133-1.987-3.232-2.03-3.28L19,0.186l-0.742,0.822
	c-0.043,0.048-1.024,1.147-2.03,3.28c-1.136,0.65-2.057,1.301-2.635,1.736C12.136,4.881,10.523,4,9,4
	C7.529,4,6.274,4.479,5.371,5.385C4.993,5.764,4.708,6.216,4.484,6.708C3.635,6.331,2.478,6,1,6H0v8c0,2.663,2.564,4,4,4h0.062
	c0.05-0.68,0.139-1.348,0.279-2H4c-0.482,0-2-0.602-2-2V8.065c0.894,0.12,1.564,0.386,2.025,0.631C4.02,8.801,4,8.897,4,9.003
	c0.003,1.234,0.532,2.486,1.472,3.606c0.322-0.693,0.687-1.331,1.071-1.931C6.169,10.059,6.001,9.471,6,8.997
	c-0.002-0.92,0.27-1.681,0.787-2.2C7.307,6.276,8.072,6,9,6c1.874,0,4.684,2.455,6.883,5.122c-0.55,0.443-1.001,0.994-1.324,1.629
	c-0.877-1.075-2.109-2.412-3.393-3.242L10.51,9.084L9.939,9.62C8.042,11.402,6,15.098,6,19c0,3.131,1.645,5,4.4,5
	c1.494,0,2.786-0.422,3.711-0.846c0.117,0.655,0.285,1.146,0.295,1.177l1.888-0.66C16.292,23.662,16,22.81,16,22c0-0.495,0-2,3-2
	s3,1.505,3,2c0,0.81-0.292,1.662-0.295,1.671L22.649,24l0.943,0.331c0.011-0.031,0.179-0.521,0.296-1.177
	C24.814,23.578,26.106,24,27.6,24c2.755,0,4.4-1.869,4.4-5c0-3.902-2.042-7.598-3.939-9.38l-0.57-0.536l-0.657,0.425
	c-1.284,0.83-2.516,2.167-3.393,3.241c-0.323-0.634-0.773-1.186-1.323-1.628C24.315,8.455,27.127,6,29,6
	c0.928,0,1.692,0.276,2.213,0.797c0.518,0.519,0.789,1.279,0.787,2.2c-0.002,0.474-0.17,1.062-0.543,1.682
	c0.384,0.6,0.749,1.237,1.071,1.931c0.939-1.12,1.468-2.372,1.472-3.606c0-0.106-0.021-0.202-0.025-0.306
	C34.436,8.451,35.106,8.186,36,8.065V14c0,1.398-1.519,2-2,2h-0.341c0.141,0.652,0.229,1.32,0.279,2H34c1.436,0,4-1.337,4-4V6H37z
	 M22,15c0,1.654-1.346,3-3,3s-3-1.346-3-3s1.346-3,3-3S22,13.346,22,15z M25,16c0.551,0,1,0.449,1,1s-0.449,1-1,1
	c-0.552,0-1-0.449-1-1S24.448,16,25,16z M14,17c0,0.551-0.449,1-1,1s-1-0.449-1-1s0.449-1,1-1S14,16.449,14,17z M14.167,20.856
	C13.645,21.193,12.211,22,10.4,22C9.806,22,8,22,8,19c0-2.797,1.304-5.639,2.743-7.326c0.837,0.681,1.634,1.569,2.251,2.326
	C11.343,14.003,10,15.348,10,17c0,1.654,1.346,3,3,3c1.069,0,2.002-0.566,2.534-1.41c0.072,0.069,0.155,0.126,0.231,0.191
	C14.961,19.267,14.415,19.968,14.167,20.856z M27.257,11.674C28.696,13.361,30,16.203,30,19c0,3-1.807,3-2.4,3
	c-1.811,0-3.244-0.806-3.768-1.143c-0.246-0.89-0.793-1.591-1.598-2.076c0.076-0.065,0.159-0.122,0.231-0.191
	C22.997,19.434,23.931,20,25,20c1.654,0,3-1.346,3-3c0-1.652-1.343-2.997-2.994-3C25.623,13.243,26.419,12.355,27.257,11.674z
	 M20.295,10.191C19.879,10.079,19.451,10,19,10s-0.879,0.079-1.295,0.191c-0.596-0.742-1.493-1.792-2.566-2.823
	c0.579-0.418,1.396-0.968,2.346-1.494l0.291-0.161l0.137-0.302C18.297,4.557,18.683,3.879,19,3.38
	c0.317,0.5,0.703,1.177,1.089,2.032l0.137,0.302l0.29,0.161c0.95,0.526,1.767,1.076,2.346,1.494
	C21.788,8.4,20.891,9.449,20.295,10.191z"/>
</svg>
