<?xml version="1.0" encoding="utf-8"?>
<!-- Generator: Adobe Illustrator 15.0.0, SVG Export Plug-In . SVG Version: 6.00 Build 0)  -->
<!DOCTYPE svg PUBLIC "-//W3C//DTD SVG 1.1//EN" "http://www.w3.org/Graphics/SVG/1.1/DTD/svg11.dtd">
<svg version="1.1" id="Layer_1" xmlns="http://www.w3.org/2000/svg" xmlns:xlink="http://www.w3.org/1999/xlink" x="0px" y="0px"
	 width="38px" height="38px" viewBox="0 0 38 38" enable-background="new 0 0 38 38" xml:space="preserve">
<path fill="#FFAF6E" d="M24.49,27.637c-0.272-0.451-0.403-0.699-0.596-1.084l-6.659-13.317L6.571,18.568
	c0.454,1.075,1.214,1.962,2.435,2.929c0.073,2.799,0.806,4.265,3,6c0.078,2.96,0.893,4.429,3.394,6.303
	c0.176,0.133,0.387,0.2,0.6,0.2c0.152,0,0.306-0.035,0.447-0.105l9.215-4.607C25.131,28.652,24.763,28.088,24.49,27.637z"/>
<path opacity="0.8" fill="#231F20" d="M31,38c-0.553,0-1-0.447-1-1v-3h2v3C32,37.553,31.553,38,31,38z M32,32v-3
	c0-0.553-0.447-1-1-1s-1,0.447-1,1v3H32z M36,33c0-0.553-0.447-1-1-1h-3v2h3C35.553,34,36,33.553,36,33z M16.447,33.895l7.383-3.691
	C25.861,32.806,28.235,34,30,34v-2c-0.987,0-2.706-0.765-4.338-2.713l6.785-3.393C32.786,25.725,33,25.379,33,25
	c0-3.126-0.686-4.659-3.006-6.497c-0.073-2.798-0.807-4.263-3-6C26.916,9.544,26.102,8.075,23.6,6.2
	c-0.303-0.228-0.708-0.265-1.047-0.095l-7.106,3.553l-1.301-2.603l2.215-3.523c0.194-0.308,0.205-0.697,0.029-1.016
	C16.213,2.198,15.878,2,15.514,2H11c-0.344,0-0.664,0.177-0.847,0.468l-2.514,4C7.445,6.776,7.435,7.165,7.61,7.484
	C7.787,7.802,8.122,8,8.486,8h3.896l1.276,2.552l-7.105,3.553C6.214,14.274,6,14.621,6,15c0,3.127,0.686,4.661,3.006,6.498
	c0.073,2.799,0.806,4.265,3,6c0.078,2.96,0.893,4.429,3.394,6.303c0.176,0.133,0.387,0.2,0.6,0.2
	C16.152,34,16.306,33.965,16.447,33.895z M20.553,24.342l1.553,3.105c0.189,0.38,0.388,0.742,0.591,1.087l-6.582,3.29
	c-1.573-1.266-2.036-2.19-2.105-4.211L20.553,24.342z M28.885,20.176c1.574,1.267,2.036,2.192,2.105,4.211l-6.5,3.25
	c-0.204-0.338-0.403-0.699-0.596-1.084l-1.553-3.105L28.885,20.176z M17.553,18.342l2.105,4.211l-6.543,3.271
	c-1.573-1.266-2.036-2.19-2.105-4.211L17.553,18.342z M25.885,14.176c1.574,1.267,2.036,2.192,2.105,4.211l-6.543,3.271
	l-2.105-4.211L25.885,14.176z M14.553,12.341l2.105,4.211l-6.543,3.271c-1.574-1.266-2.037-2.192-2.105-4.211L14.553,12.341z
	 M22.885,8.175c1.574,1.267,2.036,2.192,2.105,4.211l-6.543,3.271l-2.106-4.211L22.885,8.175z M11.553,4h2.152l-1.257,2h-2.152
	L11.553,4z"/>
</svg>
