<?xml version="1.0" encoding="utf-8"?>
<!-- Generator: Adobe Illustrator 15.0.0, SVG Export Plug-In . SVG Version: 6.00 Build 0)  -->
<!DOCTYPE svg PUBLIC "-//W3C//DTD SVG 1.1//EN" "http://www.w3.org/Graphics/SVG/1.1/DTD/svg11.dtd">
<svg version="1.1" id="Layer_1" xmlns="http://www.w3.org/2000/svg" xmlns:xlink="http://www.w3.org/1999/xlink" x="0px" y="0px"
	 width="38px" height="38px" viewBox="0 0 38 38" enable-background="new 0 0 38 38" xml:space="preserve">
<path fill="#FFAF6E" d="M23,28c-6.192,0-9.938-3.031-12.207-6.581C10.097,21.789,9.323,22,8.5,22c-1.536,0-3.014-0.72-4.054-1.975
	c-0.616-0.743-1.651-1.996-2.398-3.477C2.559,25.255,7.472,34,20,34c4.608,0,8.559-1.661,11.424-4.804
	c2.663-2.921,4.27-7.061,4.592-11.521C33.45,23.568,29.916,28,23,28z"/>
<path opacity="0.8" fill="#231F20" d="M10.1,14.5c0,1.271-0.491,1.65-1.1,1.65s-1.1-0.379-1.1-1.65c0-1.27,0.491-1.65,1.1-1.65
	S10.1,13.23,10.1,14.5z M36.027,14.604c0.347,5.596-1.337,11.009-4.604,14.592C28.559,32.339,24.608,34,20,34
	c-6.604,0-11.091-2.432-13.935-6.005C6.025,28.262,6,28.497,6,28.667c0,1.234,0.301,1.721,0.718,2.394C7.289,31.983,8,33.131,8,36H6
	c0-2.3-0.477-3.07-0.982-3.886C4.541,31.344,4,30.471,4,28.667c0-0.846,0.327-2.295,0.507-3.03C2.757,22.434,2,18.667,2,15v-3.216
	C1.415,11.921,0.759,12,0,12v-2c2.952,0,4-0.906,4-6h2c0,0.697-0.023,1.352-0.072,1.97c2.41-0.142,3.315-0.839,4.333-1.637
	C11.656,3.239,13.236,2,18,2v2c-4.074,0-5.254,0.926-6.504,1.906c-0.405,0.317-0.814,0.639-1.3,0.931
	c4.672,1.484,7.083,4.662,9.273,7.547C21.852,17.521,23.732,20,28,20c2.747,0,4.611-2.268,5.465-4.12
	C33.09,15.958,32.701,16,32.303,16c-2.793,0-4.204-1.352-5.338-2.438C26.019,12.655,25.334,12,24,12v-2
	c2.138,0,3.313,1.125,4.349,2.118C29.402,13.128,30.313,14,32.303,14C34.342,14,36,12.342,36,10.303c0-1.564-0.399-2.438-0.862-3.45
	C34.604,5.687,34,4.366,34,2h2c0,1.93,0.465,2.946,0.956,4.021C37.47,7.143,38,8.304,38,10.303
	C38,12.02,37.233,13.559,36.027,14.604z M33.893,18.939C32.543,20.618,30.563,22,28,22c-5.261,0-7.732-3.257-10.124-6.407
	c-2.655-3.498-5.41-7.102-12.261-7.55C5.317,9.228,4.809,10.171,4,10.842V15c0,1.741,0.202,3.503,0.612,5.206
	C5.64,21.345,7.042,22,8.5,22c2.955,0,5.319-2.638,5.501-6.135c0.034-0.651,0.016-1.287-0.027-1.912
	c0.694,0.751,1.335,1.57,1.986,2.424C15.556,20.749,12.415,24,8.5,24c-0.974,0-1.924-0.213-2.807-0.6C7.871,28.268,12.317,32,20,32
	c4.088,0,7.435-1.396,9.945-4.15C32.032,25.561,33.402,22.408,33.893,18.939z M33.818,10.413l-4.416-5.458l-1.555,1.258l4.416,5.458
	L33.818,10.413z"/>
</svg>
