<?xml version="1.0" encoding="utf-8"?>
<!-- Generator: Adobe Illustrator 15.0.0, SVG Export Plug-In . SVG Version: 6.00 Build 0)  -->
<!DOCTYPE svg PUBLIC "-//W3C//DTD SVG 1.1//EN" "http://www.w3.org/Graphics/SVG/1.1/DTD/svg11.dtd">
<svg version="1.1" id="Layer_1" xmlns="http://www.w3.org/2000/svg" xmlns:xlink="http://www.w3.org/1999/xlink" x="0px" y="0px"
	 width="38px" height="38px" viewBox="0 0 38 38" enable-background="new 0 0 38 38" xml:space="preserve">
<path fill="#FF8787" d="M31.929,16.093C31.371,12.312,27.295,10,21,10c-6.785,0-11,2.682-11,7c0,2.527,1.453,4.916,4.01,6.468
	C15.502,23.812,17.167,24,19,24C26.478,24,31.31,21,31.929,16.093z"/>
<path opacity="0.8" fill="#231F20" d="M24.146,38C21.483,35.026,20,31.545,20,26h2v-1v-1.18v-1.939c5-0.689,8-3.16,8-6.797
	c0-4.318-4.215-7-11-7c-1.069,0-2.065,0.074-3,0.203V6.18C16.946,6.063,17.945,6,19,6c1.056,0,2.055,0.063,3,0.18V4.083h-8v-2h10
	v4.452c5.03,1.164,8,4.185,8,8.465s-2.97,7.302-8,8.465v2.619h-1.998c0.017,5.782,1.68,8.896,4.938,11.916H24.146z M20,26.084V26v-1
	v-1.027v-1.914c-0.328,0.014-0.658,0.025-1,0.025s-0.672-0.012-1-0.025v1.914V24v2c0,0.029,0.002,0.056,0.002,0.084H20z M16,26.084
	V26v-2v-0.18v-1.939c-5-0.689-8-3.16-8-6.797c0-3.123,2.213-5.383,6-6.399V6.535C8.97,7.699,6,10.72,6,15s2.97,7.302,8,8.465v2.619
	H16z M21.587,38c-2.237-3.005-3.57-6.68-3.585-11.916H18V26h-2c0,5.143,1.15,8.909,3.126,12H21.587z"/>
</svg>
