<?xml version="1.0" encoding="utf-8"?>
<!-- Generator: Adobe Illustrator 15.0.0, SVG Export Plug-In . SVG Version: 6.00 Build 0)  -->
<!DOCTYPE svg PUBLIC "-//W3C//DTD SVG 1.1//EN" "http://www.w3.org/Graphics/SVG/1.1/DTD/svg11.dtd">
<svg version="1.1" id="Layer_1" xmlns="http://www.w3.org/2000/svg" xmlns:xlink="http://www.w3.org/1999/xlink" x="0px" y="0px"
	 width="38px" height="38px" viewBox="0 0 38 38" enable-background="new 0 0 38 38" xml:space="preserve">
<circle fill="#7DD47F" cx="19" cy="19" r="11"/>
<path opacity="0.8" fill="#231F20" d="M36,19c0,8.349-6.055,15.296-14,16.719v-2.021C28.839,32.304,34,26.244,34,19
	c0-8.271-6.729-15-15-15C10.729,4,4,10.729,4,19c0,8.271,6.729,15,15,15c0.337,0,0.668-0.028,1-0.051v2
	C19.667,35.969,19.337,36,19,36C9.626,36,2,28.374,2,19S9.626,2,19,2S36,9.626,36,19z M26.447,30.105l-4-2l-0.895,1.789l4,2
	L26.447,30.105z M16.447,29.895l-0.895-1.789l-4,2l0.895,1.789L16.447,29.895z M26,16h-6v-2h4v-2H14v2h4v2h-6v12h2v-2h10v2h2V16z
	 M20,22h4v2h-4V22z M14,22h4v2h-4V22z M20,18h4v2h-4V18z M14,18h4v2h-4V18z M28,8h-8.279l-0.772-2.316l-1.897,0.633L17.613,8H10v4h2
	v-2h14v2h2V8z"/>
</svg>
