<?xml version="1.0" encoding="utf-8"?>
<!-- Generator: Adobe Illustrator 15.0.0, SVG Export Plug-In . SVG Version: 6.00 Build 0)  -->
<!DOCTYPE svg PUBLIC "-//W3C//DTD SVG 1.1//EN" "http://www.w3.org/Graphics/SVG/1.1/DTD/svg11.dtd">
<svg version="1.1" id="Layer_1" xmlns="http://www.w3.org/2000/svg" xmlns:xlink="http://www.w3.org/1999/xlink" x="0px" y="0px"
	 width="38px" height="38px" viewBox="0 0 38 38" enable-background="new 0 0 38 38" xml:space="preserve">
<circle fill="#FF8787" cx="19" cy="19" r="11"/>
<path opacity="0.8" fill="#231F20" d="M36,19c0,8.349-6.055,15.296-14,16.719v-2.021C28.839,32.304,34,26.244,34,19
	c0-8.271-6.729-15-15-15C10.729,4,4,10.729,4,19c0,8.271,6.729,15,15,15c0.337,0,0.668-0.028,1-0.051v2
	C19.667,35.969,19.337,36,19,36C9.626,36,2,28.374,2,19S9.626,2,19,2S36,9.626,36,19z M20,20.863
	c1.941,2.632,5.083,5.646,8.629,7.065l0.742-1.857c-4.055-1.622-7.526-5.664-8.861-8.071H30v-2H20v-2h8v-2h-8V6h-2v6h-8v2h8v2H8v2
	h9.491c-1.335,2.407-4.807,6.449-8.862,8.071l0.743,1.857c3.545-1.419,6.687-4.434,8.628-7.065V30h2V20.863z"/>
</svg>
