<?xml version="1.0" encoding="utf-8"?>
<!-- Generator: Adobe Illustrator 15.0.0, SVG Export Plug-In . SVG Version: 6.00 Build 0)  -->
<!DOCTYPE svg PUBLIC "-//W3C//DTD SVG 1.1//EN" "http://www.w3.org/Graphics/SVG/1.1/DTD/svg11.dtd">
<svg version="1.1" id="Layer_1" xmlns="http://www.w3.org/2000/svg" xmlns:xlink="http://www.w3.org/1999/xlink" x="0px" y="0px"
	 width="38px" height="38px" viewBox="0 0 38 38" enable-background="new 0 0 38 38" xml:space="preserve">
<path fill="#FF8787" d="M28.119,18c-2.579,0-6.104,0-7.119,0c-1.657,0-3,1.343-3,3c0,1.657,0,6.346,0,8
	c0,1.52,1.616,3.699,2.874,5.166C22.133,35.633,22.379,36,22.379,36H28c0,0,0.562-0.693,1.703-2.155S32,30.058,32,26.63
	C32,23.306,30.219,20.457,28.119,18z"/>
<path opacity="0.8" fill="#231F20" d="M20,38h-2c0-1.217,0.96-3.244,2.874-3.834C19.616,32.699,18,30.52,18,29c0-1.654,1.346-3,3-3
	h3v2h-3c-0.552,0-1,0.448-1,1c0,0.732,1.361,2.875,3.419,5h3.288C27.457,33.475,30,31.348,30,26.63c0-4.022-3.46-7.532-6.24-10.353
	c-1.837-1.863-3.287-3.334-3.664-4.773C19.66,9.844,19.295,7.326,19.119,6H14c-1.675,0-3.322,0.313-4.52,2H16v2c-3.61,0-4,4.196-4,6
	v2h2v6h-2v-4h-1c-6.318,0-7-3.497-7-5c0-1.152,1.307-2.684,2.068-3.478c0.1-0.545,0.217-1.052,0.35-1.522H6V8h1.17
	C8.893,4.49,11.772,4,14,4h6.889l0.104,0.883c0.005,0.039,0.472,3.958,1.037,6.114c0.241,0.923,1.656,2.357,3.153,3.876
	C28.221,17.954,32,21.788,32,26.63c0,3.428-1.155,5.753-2.297,7.215C33.581,33.107,36,29.799,36,25c0-3.392-1.589-5.729-3.126-7.988
	C31.461,14.935,30,12.787,30,10c0-4.429,3.232-6,6-6v2c-1.203,0-4,0.39-4,4c0,2.171,1.171,3.894,2.527,5.887
	C36.155,18.28,38,20.992,38,25c0,6.579-4.019,11-10,11h-6C20.602,36,20,37.518,20,38z M8.506,10
	c-0.208,0.623-0.382,1.339-0.52,2.165L7.934,12.48l-0.226,0.227c-0.849,0.851-1.663,1.952-1.708,2.311
	C6,17.126,7.995,17.811,10,17.964V16c0-2.178,0.5-4.439,1.726-6H8.506z M12,38h-2c0-1.217,0.96-3.244,2.874-3.834
	C11.616,32.699,10,30.52,10,29c0-1.654,1.346-3,3-3h1.676c1.125-2.363,3.537-4,6.324-4h5v2h-5c-2.757,0-5,2.243-5,5v0.984l-2,0.014
	V29c0-0.34,0.024-0.673,0.071-1H13c-0.551,0-1,0.448-1,1c0,0.732,1.361,2.875,3.419,5H16v2h-2C12.602,36,12,37.518,12,38z"/>
</svg>
