<?xml version="1.0" encoding="utf-8"?>
<!-- Generator: Adobe Illustrator 15.0.0, SVG Export Plug-In . SVG Version: 6.00 Build 0)  -->
<!DOCTYPE svg PUBLIC "-//W3C//DTD SVG 1.1//EN" "http://www.w3.org/Graphics/SVG/1.1/DTD/svg11.dtd">
<svg version="1.1" id="Layer_1" xmlns="http://www.w3.org/2000/svg" xmlns:xlink="http://www.w3.org/1999/xlink" x="0px" y="0px"
	 width="38px" height="38px" viewBox="0 0 38 38" enable-background="new 0 0 38 38" xml:space="preserve">
<circle fill="#FF8787" cx="19" cy="19" r="11"/>
<path opacity="0.8" fill="#231F20" d="M36,19c0,8.349-6.055,15.296-14,16.719v-2.021C28.839,32.304,34,26.244,34,19
	c0-8.271-6.729-15-15-15C10.729,4,4,10.729,4,19c0,8.271,6.729,15,15,15c0.337,0,0.668-0.028,1-0.051v2
	C19.667,35.969,19.337,36,19,36C9.626,36,2,28.374,2,19S9.626,2,19,2S36,9.626,36,19z M20,26v-8h10v-2H20v-1.469
	c0.985-0.671,3.51-2.414,6.6-4.731L26,8H12v2h10.959c-2.665,1.933-4.49,3.152-4.514,3.168L18,13.465V16H9v2h9v8c0,1.794-0.514,2-5,2
	v2C16.911,30,20,30,20,26z"/>
</svg>
