<?xml version="1.0" encoding="utf-8"?>
<!-- Generator: Adobe Illustrator 15.0.0, SVG Export Plug-In . SVG Version: 6.00 Build 0)  -->
<!DOCTYPE svg PUBLIC "-//W3C//DTD SVG 1.1//EN" "http://www.w3.org/Graphics/SVG/1.1/DTD/svg11.dtd">
<svg version="1.1" id="Layer_1" xmlns="http://www.w3.org/2000/svg" xmlns:xlink="http://www.w3.org/1999/xlink" x="0px" y="0px"
	 width="38px" height="38px" viewBox="0 0 38 38" enable-background="new 0 0 38 38" xml:space="preserve">
<polygon fill="#FF8787" points="30,36 18,36 18,26 21.071,26 24,23.071 24,18.929 21.071,16 18,16 18,10 30,10 "/>
<path opacity="0.8" fill="#231F20" d="M30,5.586V36H8V6h18v2H10v26h18V6.414L23.586,2h-9.172l-2,2H9.586l4-4h10.828L30,5.586z
	 M20,20h-2v2h2V20z M16.101,14h5.798L26,18.101v5.799L21.899,28h-5.798L12,23.899v-5.799L16.101,14z M16.929,16L14,18.929v4.143
	L16.929,26h4.142L24,23.071v-4.143L21.071,16H16.929z"/>
</svg>
