<?xml version="1.0" encoding="utf-8"?>
<!-- Generator: Adobe Illustrator 15.0.0, SVG Export Plug-In . SVG Version: 6.00 Build 0)  -->
<!DOCTYPE svg PUBLIC "-//W3C//DTD SVG 1.1//EN" "http://www.w3.org/Graphics/SVG/1.1/DTD/svg11.dtd">
<svg version="1.1" id="Layer_1" xmlns="http://www.w3.org/2000/svg" xmlns:xlink="http://www.w3.org/1999/xlink" x="0px" y="0px"
	 width="38px" height="38px" viewBox="0 0 38 38" enable-background="new 0 0 38 38" xml:space="preserve">
<circle fill="#FF8787" cx="19" cy="19" r="15"/>
<path opacity="0.8" fill="#231F20" d="M28,34h-2v-2H12v2h-2V19.698c-1.744,1.193-3.716,1.985-5.858,2.292l-0.283-1.98
	c3.2-0.457,6.534-2.458,8.896-6.01H4v-2h9.897c0.307-0.63,0.585-1.297,0.833-2H8V8h7.32c0.156-0.641,0.287-1.308,0.391-2H6V4h9.931
	C15.976,3.353,16,2.686,16,2h2c0,0.677-0.023,1.344-0.069,2H32v2H17.719c-0.098,0.682-0.221,1.349-0.368,2H30v2H16.81
	c-0.219,0.689-0.466,1.356-0.74,2H34v2h-8.988c2.01,3.352,4.782,5.139,9.185,6.02l-0.393,1.961c-2.27-0.454-4.18-1.144-5.804-2.125
	V34z M12,30h14v-4H12V30z M12,24h14v-4H12V24z M12.06,18h13.545c-1.116-1.097-2.063-2.419-2.883-4h-7.634
	C14.238,15.517,13.221,16.862,12.06,18z"/>
</svg>
