<?xml version="1.0" encoding="utf-8"?>
<!-- Generator: Adobe Illustrator 15.0.0, SVG Export Plug-In . SVG Version: 6.00 Build 0)  -->
<!DOCTYPE svg PUBLIC "-//W3C//DTD SVG 1.1//EN" "http://www.w3.org/Graphics/SVG/1.1/DTD/svg11.dtd">
<svg version="1.1" id="Layer_1" xmlns="http://www.w3.org/2000/svg" xmlns:xlink="http://www.w3.org/1999/xlink" x="0px" y="0px"
	 width="38px" height="38px" viewBox="0 0 38 38" enable-background="new 0 0 38 38" xml:space="preserve">
<path fill="#FF8787" d="M10.579,32H31c0.417,0,0.79-0.259,0.937-0.648l4.808-12.822C33.918,19.861,27.988,22,19,22
	c-5.356,0-9.617-0.761-12.792-1.656L10.579,32z"/>
<path opacity="0.8" fill="#231F20" d="M37.622,14.219c-0.336-0.27-0.812-0.291-1.175-0.052c-0.036,0.024-2.458,1.573-7.184,2.693
	C27.162,13.956,23.358,12,19,12c-4.359,0-8.161,1.959-10.263,4.864c-4.727-1.122-7.147-2.673-7.183-2.696
	c-0.36-0.24-0.836-0.22-1.176,0.049c-0.34,0.27-0.467,0.728-0.315,1.134l6,16C6.21,31.741,6.583,32,7,32h24
	c0.417,0,0.79-0.259,0.937-0.648l6-16C38.089,14.946,37.961,14.489,37.622,14.219z M30.307,30H7.693L2.842,17.065
	C5.686,18.296,11.058,20,19,20c2.71,0,5.114-0.201,7.228-0.512c-0.429-0.675-1.019-1.285-1.735-1.799C22.829,17.88,21.006,18,19,18
	c-3.113,0-5.8-0.282-8.085-0.688C12.734,15.309,15.676,14,19,14c4.22,0,7.833,2.104,9.299,5.068
	c0.008,0.019,0.016,0.042,0.024,0.061c3.018-0.598,5.299-1.399,6.834-2.063L30.307,30z"/>
</svg>
