<?xml version="1.0" encoding="utf-8"?>
<!-- Generator: Adobe Illustrator 15.0.0, SVG Export Plug-In . SVG Version: 6.00 Build 0)  -->
<!DOCTYPE svg PUBLIC "-//W3C//DTD SVG 1.1//EN" "http://www.w3.org/Graphics/SVG/1.1/DTD/svg11.dtd">
<svg version="1.1" id="Layer_1" xmlns="http://www.w3.org/2000/svg" xmlns:xlink="http://www.w3.org/1999/xlink" x="0px" y="0px"
	 width="38px" height="38px" viewBox="0 0 38 38" enable-background="new 0 0 38 38" xml:space="preserve">
<path opacity="0.5" fill="#332613" d="M23,32h-8C8.626,32,4,27.622,4,21.591c0-5.709,4.089-9.013,7.375-11.668
	C13.857,7.918,16,6.187,16,4h2c0,3.142-2.607,5.248-5.368,7.479C9.372,14.113,6,16.837,6,21.591C6,26.542,9.701,30,15,30h8
	c5.299,0,9-3.458,9-8.409c0-4.754-3.372-7.478-6.632-10.112C22.607,9.248,20,7.142,20,4h2c0,2.187,2.144,3.918,4.625,5.923
	C29.91,12.578,34,15.882,34,21.591C34,27.622,29.374,32,23,32z M23.105,17.447l-3-6l1.789-0.895l3,6L23.105,17.447z M14.895,17.447
	l-1.789-0.895l3-6l1.789,0.895L14.895,17.447z"/>
</svg>
