<?xml version="1.0" encoding="utf-8"?>
<!-- Generator: Adobe Illustrator 15.0.0, SVG Export Plug-In . SVG Version: 6.00 Build 0)  -->
<!DOCTYPE svg PUBLIC "-//W3C//DTD SVG 1.1//EN" "http://www.w3.org/Graphics/SVG/1.1/DTD/svg11.dtd">
<svg version="1.1" id="Layer_1" xmlns="http://www.w3.org/2000/svg" xmlns:xlink="http://www.w3.org/1999/xlink" x="0px" y="0px"
	 width="38px" height="38px" viewBox="0 0 38 38" enable-background="new 0 0 38 38" xml:space="preserve">
<path opacity="0.5" fill="#332613" d="M12.1,10.5c0,1.271-0.491,1.65-1.1,1.65s-1.1-0.379-1.1-1.65c0-1.27,0.491-1.65,1.1-1.65
	S12.1,9.23,12.1,10.5z M10,15.968v11.565L7.061,34h2.197L12,27.967V14h-1c-4.431,0-6.41-1.981-6.884-4h1.322
	c1.896,0,2.545-0.585,4.473-2.321c0.474-0.427,1.042-0.938,1.745-1.549l0.681-0.592L9.752,1.859L8.116,3.009l1.55,2.207
	C9.251,5.582,8.891,5.906,8.572,6.193C6.707,7.873,6.54,8,5.438,8H2v1C2,12.292,4.483,15.611,10,15.968z M18.042,9.978
	c0.085,2.662,1.065,5.059,2.785,6.788C22.96,18.912,26.067,20,30.062,20c0.69,0,1.343-0.043,1.953-0.128
	c0.139,4.129,1.248,6.321,1.911,7.274l-1.429,3.144C29.026,27.537,25.56,26,14,26v2c1.272,0,2.438,0.019,3.512,0.056L13.901,36
	h2.197l3.563-7.839c2.456,0.161,4.342,0.439,5.86,0.817L23.239,34h2.196l2.01-4.421c1.767,0.683,2.959,1.562,4.198,2.588L29.901,36
	h2.197l4.196-9.232l-0.513-0.49c-0.018-0.017-1.694-1.766-1.779-6.875C36.559,18.501,38,16.618,38,14c0-3.533-2.468-6-6-6v2
	c2.43,0,4,1.57,4,4c0,3.306-3.229,4-5.938,4c-3.442,0-6.072-0.89-7.817-2.645c-1.125-1.132-1.703-2.443-1.98-3.664
	c0.416,0.258,0.851,0.495,1.309,0.712l0.855-1.808c-3.418-1.62-5.529-4.774-8.136-9.054l-1.708,1.041
	C14.42,5.597,16.035,8.093,18.042,9.978z"/>
</svg>
