<?xml version="1.0" encoding="utf-8"?>
<!-- Generator: Adobe Illustrator 15.0.0, SVG Export Plug-In . SVG Version: 6.00 Build 0)  -->
<!DOCTYPE svg PUBLIC "-//W3C//DTD SVG 1.1//EN" "http://www.w3.org/Graphics/SVG/1.1/DTD/svg11.dtd">
<svg version="1.1" id="Layer_1" xmlns="http://www.w3.org/2000/svg" xmlns:xlink="http://www.w3.org/1999/xlink" x="0px" y="0px"
	 width="38px" height="38px" viewBox="0 0 38 38" enable-background="new 0 0 38 38" xml:space="preserve">
<path opacity="0.5" fill="#332613" d="M36,19c0,8.349-6.055,15.296-14,16.719v-2.021C28.839,32.304,34,26.244,34,19
	c0-8.271-6.729-15-15-15C10.729,4,4,10.729,4,19c0,8.271,6.729,15,15,15c0.337,0,0.668-0.028,1-0.051v2
	C19.667,35.969,19.337,36,19,36C9.626,36,2,28.374,2,19S9.626,2,19,2S36,9.626,36,19z M22.062,24.581
	c1.25,1.653,2.791,2.772,4.629,3.37l0.424,0.138l0.386-0.223C28.99,27.006,30,23.103,30,22h-2c0,0.819-0.71,3.001-1.251,3.841
	c-1.292-0.542-2.395-1.457-3.312-2.751c1.793-2.051,3.417-4.354,4.473-6.676l-1.82-0.827c-0.882,1.939-2.217,3.886-3.713,5.665
	c-0.891-1.89-1.527-4.302-1.917-7.251H26v-2h-5.759C20.08,10.177,20,8.178,20,6h-2c0,2.16,0.08,4.159,0.241,6H12v1
	c0,8.036-0.489,9.78-3.737,13.324l1.475,1.352c2.35-2.564,3.444-4.389,3.923-7.676H18v-2h-4.131c0.08-1.152,0.118-2.466,0.128-4
	h4.459c0.468,3.646,1.3,6.586,2.501,8.839c-2.3,2.432-4.752,4.378-6.431,5.28l0.947,1.762
	C17.239,28.932,19.707,27.007,22.062,24.581z M26.707,9.293l-3-3l-1.414,1.414l3,3L26.707,9.293z"/>
</svg>
