<?xml version="1.0" encoding="utf-8"?>
<!-- Generator: Adobe Illustrator 15.0.0, SVG Export Plug-In . SVG Version: 6.00 Build 0)  -->
<!DOCTYPE svg PUBLIC "-//W3C//DTD SVG 1.1//EN" "http://www.w3.org/Graphics/SVG/1.1/DTD/svg11.dtd">
<svg version="1.1" id="Layer_1" xmlns="http://www.w3.org/2000/svg" xmlns:xlink="http://www.w3.org/1999/xlink" x="0px" y="0px"
	 width="38px" height="38px" viewBox="0 0 38 38" enable-background="new 0 0 38 38" xml:space="preserve">
<path opacity="0.5" fill="#332613" d="M20.5,38c-2.589,0-4.224-0.518-5.804-1.019c-2.022-0.641-4.112-1.299-8.625-0.984
	l-0.142-1.994c4.888-0.351,7.271,0.407,9.371,1.072C16.867,35.571,18.22,36,20.5,36c3.442,0,5.5-2.15,5.5-4.229
	C26,31.142,25.795,28,21.746,28c-2.411,0-4.184,0.866-6.061,1.782C13.557,30.822,11.144,32,7.581,32C3.188,32,0,29.216,0,25.379
	C0,21.825,2.998,18,9.581,18c3.217,0,5.786,0.921,8.506,1.896c1.7,0.609,3.435,1.231,5.399,1.639C23.82,21.274,24,20.931,24,20.542
	c0-1.38-1.398-2.778-2.751-4.129l-0.122-0.122l1.414-1.414l0.121,0.122C24.227,16.561,26,18.333,26,20.542
	c0,0.472-0.104,0.925-0.296,1.34C26.433,21.958,27.195,22,28,22c2.317,0,4-1.262,4-3c0-2.184-1.962-4.092-4.039-6.112
	c-0.1-0.097-0.199-0.194-0.299-0.291c-0.706,0.61-1.413,1.317-2.205,2.109l-1.414-1.414c2.776-2.777,5.006-5.006,9.957-5.267V2.064
	c-2.353,0.289-4.49,1.463-4.515,1.477l-0.587,0.327l-0.524-0.421C27.153,2.466,26.337,2,25,2c-1.537,0-2.759,0.96-4.052,1.978
	c-0.988,0.776-2.009,1.579-3.223,1.974L17.417,6h-2.564l-3.916,3.916L9.523,8.501L12.024,6H6V4h11.248
	c0.825-0.307,1.622-0.934,2.464-1.595C21.146,1.278,22.771,0,25,0c1.815,0,3.021,0.666,4.115,1.488C30.196,0.976,32.572,0,35,0h1v12
	h-2v-1.973c-2.01,0.115-3.448,0.588-4.713,1.361c0.022,0.022,0.045,0.044,0.068,0.066C31.639,13.675,34,15.971,34,19
	c0,2.261-1.622,4.08-4,4.736V26h2v-2h2v2h2v2h-2v2h-2v-2h-2c-1.103,0-2-0.897-2-2v-2c-4.391,0-7.684-1.18-10.588-2.222
	C14.86,20.864,12.45,20,9.581,20C4.344,20,2,22.701,2,25.379C2,28.1,4.295,30,7.581,30c0.442,0,0.862-0.02,1.263-0.057
	C9.22,29.551,10,28.598,10,27.43c0-1.229-1.599-2.634-2.158-3.028l1.148-1.638C9.298,22.979,12,24.941,12,27.43
	c0,0.721-0.168,1.375-0.408,1.941c1.142-0.373,2.164-0.872,3.216-1.386C16.806,27.01,18.873,26,21.746,26
	C26.066,26,28,28.898,28,31.771C28,34.833,25.194,38,20.5,38z M19.714,14.877L18.3,13.463l5.117-5.117l1.414,1.414L19.714,14.877z
	 M15.01,14.196l-1.414-1.414l5.677-5.677l1.414,1.414L15.01,14.196z M25.475,6.083c0.575-0.362,1.608-1.167,1.608-1.167
	c-0.955-1.032-1.839-1.237-2.5-1.079c-0.714,0.171-1.401,0.913-1.401,0.913S24.75,5.583,25.475,6.083z"/>
</svg>
