<?xml version="1.0" encoding="utf-8"?>
<!-- Generator: Adobe Illustrator 15.0.0, SVG Export Plug-In . SVG Version: 6.00 Build 0)  -->
<!DOCTYPE svg PUBLIC "-//W3C//DTD SVG 1.1//EN" "http://www.w3.org/Graphics/SVG/1.1/DTD/svg11.dtd">
<svg version="1.1" id="Layer_1" xmlns="http://www.w3.org/2000/svg" xmlns:xlink="http://www.w3.org/1999/xlink" x="0px" y="0px"
	 width="38px" height="38px" viewBox="0 0 38 38" enable-background="new 0 0 38 38" xml:space="preserve">
<path opacity="0.5" fill="#332613" d="M30,20h-4v-2h4V20z M14,14h10v10H14V14z M16,22h6v-6h-6V22z M19,4C10.729,4,4,10.729,4,19
	c0,8.271,6.729,15,15,15c0.337,0,0.668-0.028,1-0.051v-2C19.669,31.975,19.337,32,19,32c-7.168,0-13-5.832-13-13
	c0-7.168,5.832-13,13-13c7.168,0,13,5.832,13,13c0,6.134-4.276,11.276-10,12.637v2.061C28.839,32.304,34,26.244,34,19
	C34,10.729,27.271,4,19,4z M8,20h4v-2H8V20z M20,26h-2v4h2V26z M18,8v4h2V8H18z"/>
</svg>
