<?xml version="1.0" encoding="utf-8"?>
<!-- Generator: Adobe Illustrator 15.0.0, SVG Export Plug-In . SVG Version: 6.00 Build 0)  -->
<!DOCTYPE svg PUBLIC "-//W3C//DTD SVG 1.1//EN" "http://www.w3.org/Graphics/SVG/1.1/DTD/svg11.dtd">
<svg version="1.1" id="Layer_1" xmlns="http://www.w3.org/2000/svg" xmlns:xlink="http://www.w3.org/1999/xlink" x="0px" y="0px"
	 width="38px" height="38px" viewBox="0 0 38 38" enable-background="new 0 0 38 38" xml:space="preserve">
<path opacity="0.5" fill="#332613" d="M32,26.752c0,1.359-0.153,2.575-0.9,4.095L28.563,36H18v-2h1.795
	C18.847,32.659,18,30.931,18,29c0-2.205,0.897-4.205,2.346-5.654l1.414,1.414C20.673,25.846,20,27.346,20,29
	c0,2.033,1.313,3.861,2.357,5h4.962l1.985-4.036C29.887,28.782,30,27.892,30,26.752c0-3.005-2.354-5.57-6.628-7.255
	C22.721,19.799,21.951,20,21,20h-3c-0.518,0-1.63,0.593-2.126,1.485l-1.748-0.971C14.896,19.128,16.634,18,18,18h3
	c1.383,0,2.133-0.573,2.935-1.353C23.207,12.476,20.401,10,18,10h-4c-0.063,0.006-0.141,0.039-0.221,0.075
	c-0.729-0.954-1.627-1.98-2.565-2.875C9.884,5.93,8.922,5.013,7.692,4.252C7.429,4.089,7.142,4,6.883,4
	C6.621,4,6.41,4.087,6.238,4.267C5.833,4.691,6.013,5.315,6.291,5.721c0.816,1.192,1.778,2.11,3.108,3.381
	c0.765,0.73,1.828,1.602,2.872,2.341C10.428,13.634,8,17.977,8,22c0,2.764,0.92,4.604,1.895,6.553C10.93,30.623,12,32.764,12,36h-2
	c0-2.764-0.92-4.604-1.895-6.553C7.07,27.377,6,25.236,6,22c0-3.372,1.567-7.336,3.468-10.186c-0.854-0.703-1.433-1.25-1.449-1.266
	C6.6,9.194,5.575,8.216,4.64,6.851c-0.907-1.327-0.846-2.92,0.151-3.964c0.976-1.023,2.631-1.152,3.953-0.334
	c1.408,0.87,2.433,1.848,3.851,3.201c0.37,0.353,1.226,1.199,2.113,2.247h2.547c-1.025-1.402-2.242-2.699-3.285-3.694
	C12.9,3.285,11.939,2.373,10.833,1.56l1.276-1.549c1.159,0.862,2.145,1.801,3.24,2.847c1.998,1.907,3.505,3.733,4.518,5.449
	c3.074,0.989,5.568,4.337,6.124,8.563l0.064,0.489l-0.349,0.349c-0.14,0.14-0.286,0.284-0.438,0.43
	C31.069,20.825,32,24.622,32,26.752z M11.484,28c0.146,0.299,0.293,0.597,0.445,0.896C12.947,30.911,14,32.995,14,36h2
	c0-3.477-1.264-5.983-2.283-8H11.484z M33.672,30c-0.127,0.349-0.29,0.735-0.511,1.186L30.793,36h2.229l1.935-3.932
	c0.4-0.814,0.65-1.485,0.813-2.068H33.672z M19.1,14.5c0-1.27-0.491-1.65-1.1-1.65s-1.1,0.38-1.1,1.65c0,1.271,0.491,1.65,1.1,1.65
	S19.1,15.771,19.1,14.5z"/>
</svg>
