<?xml version="1.0" encoding="utf-8"?>
<!-- Generator: Adobe Illustrator 15.0.0, SVG Export Plug-In . SVG Version: 6.00 Build 0)  -->
<!DOCTYPE svg PUBLIC "-//W3C//DTD SVG 1.1//EN" "http://www.w3.org/Graphics/SVG/1.1/DTD/svg11.dtd">
<svg version="1.1" id="Layer_1" xmlns="http://www.w3.org/2000/svg" xmlns:xlink="http://www.w3.org/1999/xlink" x="0px" y="0px"
	 width="38px" height="38px" viewBox="0 0 38 38" enable-background="new 0 0 38 38" xml:space="preserve">
<path opacity="0.5" fill="#332613" d="M36,19c0,8.349-6.055,15.296-14,16.719v-2.021C28.839,32.304,34,26.244,34,19
	c0-8.271-6.729-15-15-15C10.729,4,4,10.729,4,19c0,8.271,6.729,15,15,15c0.337,0,0.668-0.028,1-0.051v2
	C19.667,35.969,19.337,36,19,36C9.626,36,2,28.374,2,19S9.626,2,19,2S36,9.626,36,19z M22,12h4v12c-0.76,0-1.482-0.418-1.485-0.42
	l-1.029,1.715C23.605,25.367,24.698,26,26,26c1.141,0,2-0.859,2-2V10h-8v20h2V12z M18,21v-9h-2v7.307l-4,1.5v-9.052l6.275-1.793
	l-0.55-1.923L10,10.246v11.311l-1.351,0.507l0.702,1.873l6.633-2.487c-0.187,2.595-2.051,3.97-6.128,4.562l0.287,1.979
	C12.087,27.708,18,26.85,18,21z"/>
</svg>
