<?xml version="1.0" encoding="utf-8"?>
<!-- Generator: Adobe Illustrator 15.0.0, SVG Export Plug-In . SVG Version: 6.00 Build 0)  -->
<!DOCTYPE svg PUBLIC "-//W3C//DTD SVG 1.1//EN" "http://www.w3.org/Graphics/SVG/1.1/DTD/svg11.dtd">
<svg version="1.1" id="Layer_1" xmlns="http://www.w3.org/2000/svg" xmlns:xlink="http://www.w3.org/1999/xlink" x="0px" y="0px"
	 width="38px" height="38px" viewBox="0 0 38 38" enable-background="new 0 0 38 38" xml:space="preserve">
<path opacity="0.5" fill="#332613" d="M25,13.15c-0.608,0-1.1-0.379-1.1-1.65c0-1.27,0.491-1.65,1.1-1.65s1.1,0.38,1.1,1.65
	C26.1,12.771,25.608,13.15,25,13.15z M20.043,36l-1.877-4h5.791l1.878,4h2.21l-1.915-4.079C30.115,31.425,34,28.372,34,24
	c0-1.968-0.442-3.541-0.91-5.207C32.554,16.886,32,14.914,32,12V4c0-2.206-1.794-4-4-4c-2.186,0-3.968,1.762-4,3.94
	c-0.35-0.089-0.663-0.123-0.895-0.123c-1.813,0-3.288,1.475-3.288,3.288c0,0.767,0.194,1.474,0.396,2.001l-3.692,2.215L20,11.858V14
	c0,0.535-0.219,0.805-1.238,1.824l-0.413,0.413C14.778,12.117,12.06,10,8.006,10C3.591,10,0,13.591,0,18.006V24h2v-5.994
	C2,14.694,4.694,12,8.006,12c3.046,0,5.211,1.345,8.93,5.65l-1.433,1.433C13.649,17.118,11.99,16,9.633,16
	C6.527,16,4,18.527,4,21.633V28h2v-6.367C6,19.63,7.63,18,9.633,18c1.719,0,2.955,0.776,5.085,3.192l0.704,0.799l4.753-4.753
	C21.234,16.179,22,15.414,22,14v-3.634l0.865-0.524l-0.507-0.855c-0.006-0.009-0.541-0.924-0.541-1.881
	c0-0.71,0.578-1.288,1.288-1.288c0.189,0,0.994,0.118,1.468,0.692l0.977,1.708l1.476-0.894L26.27,5.492C26.153,5.212,26,4.361,26,4
	c0-1.103,0.897-2,2-2s2,0.897,2,2v8c0,3.189,0.619,5.392,1.164,7.334C31.613,20.93,32,22.308,32,24c0,3.536-3.689,6-7,6h-7.773
	l-2.539-5.407C13.925,22.969,12.547,22,11.001,22C9.346,22,8,23.347,8,25.001V32h2v-6.999C10,24.449,10.449,24,11.001,24
	c0.762,0,1.446,0.525,1.876,1.442L17.834,36H20.043z"/>
</svg>
