<?xml version="1.0" encoding="utf-8"?>
<!-- Generator: Adobe Illustrator 15.0.0, SVG Export Plug-In . SVG Version: 6.00 Build 0)  -->
<!DOCTYPE svg PUBLIC "-//W3C//DTD SVG 1.1//EN" "http://www.w3.org/Graphics/SVG/1.1/DTD/svg11.dtd">
<svg version="1.1" id="Layer_1" xmlns="http://www.w3.org/2000/svg" xmlns:xlink="http://www.w3.org/1999/xlink" x="0px" y="0px"
	 width="38px" height="38px" viewBox="0 0 38 38" enable-background="new 0 0 38 38" xml:space="preserve">
<path opacity="0.5" fill="#332613" d="M36,19c0,8.349-6.055,15.296-14,16.719v-2.021C28.839,32.304,34,26.244,34,19
	c0-8.271-6.729-15-15-15C10.729,4,4,10.729,4,19c0,8.271,6.729,15,15,15c0.337,0,0.668-0.028,1-0.051v2
	C19.667,35.969,19.337,36,19,36C9.626,36,2,28.374,2,19S9.626,2,19,2S36,9.626,36,19z M28,12h-6v-1h6V9H10v2h6v1h-6v18h2v-2h14v2h2
	V12z M12,24h14v2H12V24z M12,14h4c0,3.834-2.701,3.995-3.009,4L13,20c1.729,0,5-1.254,5-6h2v4c0,1.103,0.897,2,2,2h4v2H12V14z
	 M26,14v4h-4v-4H26z M18,11h2v1h-2V11z"/>
</svg>
