<?xml version="1.0" encoding="utf-8"?>
<!-- Generator: Adobe Illustrator 15.0.0, SVG Export Plug-In . SVG Version: 6.00 Build 0)  -->
<!DOCTYPE svg PUBLIC "-//W3C//DTD SVG 1.1//EN" "http://www.w3.org/Graphics/SVG/1.1/DTD/svg11.dtd">
<svg version="1.1" id="Layer_1" xmlns="http://www.w3.org/2000/svg" xmlns:xlink="http://www.w3.org/1999/xlink" x="0px" y="0px"
	 width="38px" height="38px" viewBox="0 0 38 38" enable-background="new 0 0 38 38" xml:space="preserve">
<path opacity="0.5" fill="#332613" d="M25,38c-4.259,0-7.007-1.237-9.432-2.33C13.578,34.774,11.858,34,9.583,34
	c-1.501,0-3.102,0.863-3.846,1.676l-1.475-1.352C5.288,33.205,7.391,32,9.583,32c2.538,0,4.448,0.79,6.417,1.672V25
	c0-1.305-0.651-2.379-1.137-2.999c-0.564,0.365-1.19,0.701-1.883,1l-0.792-1.836C17.434,18.904,18,14.002,18,12V8.225
	C16.896,8.072,15.878,8,15,8h-1V5c0-0.449-0.551-1-1-1c-0.348,0-0.699,0.022-1,0.05V10h-2V7.855
	c-5.048,3.819-5.88,9.904-5.986,10.98c0.339,0.338,1.447,0.93,2.671,1.435l1.414-2.203l0.462-0.059C11.92,17.577,14,14.554,14,12h2
	c0,3.278-2.553,7.134-6.712,7.917l-1.796,2.798l-0.753-0.276C2,20.698,2,19.42,2,19c0-1.857,1.374-9.453,8-13.568V2.319l0.836-0.139
	C10.88,2.173,11.93,2,13,2c1.542,0,3,1.458,3,3v1.021C25.229,6.413,38,12.155,38,24C38,30.882,33.138,38,25,38z M24.5,26
	c-1.355,0-2.5,1.832-2.5,4c0,3.182,2.527,5.384,3.32,5.995c3.397-0.094,6.1-1.688,7.935-3.995H26v-2h8.544
	c0.331-0.641,0.607-1.312,0.827-2h-8.902l-0.24-0.655C26.21,27.297,25.696,26,24.5,26z M18,34.553
	c1.259,0.522,2.617,0.987,4.253,1.242C21.131,34.449,20,32.479,20,30c0-3.364,1.977-6,4.5-6c1.661,0,2.74,1.068,3.291,2h8.053
	C35.947,25.337,36,24.667,36,24c0-1.445-0.21-2.774-0.591-3.994l-4.702,4.701l-1.414-1.414L34.586,18
	c-0.575-1.115-1.304-2.123-2.144-3.028l-5.735,5.735l-1.414-1.414l5.699-5.699c-0.946-0.796-1.981-1.496-3.065-2.106l-5.22,5.219
	l-1.414-1.414l4.755-4.755C24.036,9.625,21.943,8.983,20,8.574V12c0,1.861-0.412,5.815-3.56,8.77C17.122,21.639,18,23.123,18,25
	V34.553z M8,16v-2c1.476,0,2-1.077,2-2h2C12,13.988,10.626,16,8,16z"/>
</svg>
