<?xml version="1.0" encoding="utf-8"?>
<!-- Generator: Adobe Illustrator 15.0.0, SVG Export Plug-In . SVG Version: 6.00 Build 0)  -->
<!DOCTYPE svg PUBLIC "-//W3C//DTD SVG 1.1//EN" "http://www.w3.org/Graphics/SVG/1.1/DTD/svg11.dtd">
<svg version="1.1" id="Layer_1" xmlns="http://www.w3.org/2000/svg" xmlns:xlink="http://www.w3.org/1999/xlink" x="0px" y="0px"
	 width="38px" height="38px" viewBox="0 0 38 38" enable-background="new 0 0 38 38" xml:space="preserve">
<path fill="#231F20" d="M21.929,22c0-1.552,0.519-2,1.071-2s1.071,0.448,1.071,2S23.553,24,23,24S21.929,23.552,21.929,22z M19,30
	c1.654,0,3-1.346,3-3v-1h-2v1c0,0.552-0.449,1-1,1s-1-0.448-1-1v-1h-2v1C16,28.654,17.346,30,19,30z M15,20
	c-0.552,0-1.071,0.448-1.071,2s0.519,2,1.071,2s1.071-0.448,1.071-2S15.552,20,15,20z M34,19v3.5c0,1.93-1.57,3.5-3.5,3.5
	c-0.225,0-0.446-0.021-0.663-0.062c-0.411,2.295-1.53,3.623-2.531,4.553C25.424,32.238,22.127,34,19,34
	c-3.127,0-6.425-1.762-8.306-3.509c-1.001-0.93-2.12-2.258-2.532-4.554C7.947,25.979,7.725,26,7.5,26C5.57,26,4,24.43,4,22.5V19
	c0-1.654,1.346-3,3-3c0.36,0,0.705,0.063,1.024,0.18C8.07,15.42,8.188,14.695,8.357,14h2.088H14h11.46
	c0.249,0.64,0.404,1.316,0.479,2h-5.735c0.37,0.993,1.149,1.936,1.504,2.294l-1.415,1.413c-0.2-0.2-1.725-1.786-2.166-3.707h-8.075
	C10.021,16.333,10,16.666,10,17v7c0,2.747,1.039,4.082,2.056,5.026C13.598,30.458,16.429,32,19,32c2.57,0,5.401-1.542,6.944-2.974
	C26.961,28.082,28,26.746,28,24v-7c0-4.48-2.783-9-9-9c-3.784,0-6.286,1.679-7.67,4H9.048c1.348-2.93,3.915-4.995,7.241-5.717
	C16.104,5.894,16,5.459,16,5c0-1.654,1.346-3,3-3s3,1.346,3,3c0,0.459-0.104,0.894-0.288,1.283c4.743,1.03,7.954,4.785,8.264,9.897
	C30.295,16.063,30.641,16,31,16C32.654,16,34,17.346,34,19z M20,5c0-0.551-0.449-1-1-1s-1,0.449-1,1s0.449,1,1,1S20,5.551,20,5z
	 M8,19c0-0.551-0.449-1-1-1s-1,0.449-1,1v3.5C6,23.327,6.673,24,7.5,24c0.173,0,0.341-0.028,0.5-0.085V19z M32,19
	c0-0.551-0.448-1-1-1s-1,0.449-1,1v4.916C30.158,23.972,30.327,24,30.5,24c0.827,0,1.5-0.673,1.5-1.5V19z"/>
</svg>
