<?xml version="1.0" encoding="utf-8"?>
<!-- Generator: Adobe Illustrator 15.0.0, SVG Export Plug-In . SVG Version: 6.00 Build 0)  -->
<!DOCTYPE svg PUBLIC "-//W3C//DTD SVG 1.1//EN" "http://www.w3.org/Graphics/SVG/1.1/DTD/svg11.dtd">
<svg version="1.1" id="Layer_1" xmlns="http://www.w3.org/2000/svg" xmlns:xlink="http://www.w3.org/1999/xlink" x="0px" y="0px"
	 width="38px" height="38px" viewBox="0 0 38 38" enable-background="new 0 0 38 38" xml:space="preserve">
<path fill="#231F20" d="M6,36.181V12h12v14H8v7.772c3.016-0.746,5.544-2.285,6.702-3.071l-0.928-1.832l1.784-0.904l3.333,6.583
	l-1.784,0.904l-1.494-2.95c-1.545,1.029-4.712,2.861-8.45,3.484L6,36.181z M8,24h8v-4H8V24z M8,18h8v-4H8V18z M22,36h-2V12h12v19.5
	c0,1.379-1.121,2.5-2.5,2.5c-2.682,0-5.761-3.423-6.372-4.51l1.744-0.98C25.361,29.38,27.91,32,29.5,32c0.275,0,0.5-0.225,0.5-0.5
	V14h-8V36z M28.246,11.657l-2.25-2.583L27.229,8h-4.146c-0.928,0.981-2.1,1.976-3.568,2.857l-1.029-1.715
	c4.615-2.77,5.879-6.808,5.892-6.848l1.914,0.578C26.26,2.976,25.846,4.304,24.692,6H32v2h-4.287l2.041,2.343L28.246,11.657z
	 M14.246,11.657l-2.25-2.583L13.228,8H9.083c-0.927,0.981-2.099,1.976-3.568,2.857L4.485,9.143c4.58-2.748,5.879-6.811,5.892-6.851
	l1.914,0.581C12.26,2.975,11.845,4.304,10.692,6H18v2h-4.287l2.041,2.343L14.246,11.657z"/>
</svg>
