<?xml version="1.0" encoding="utf-8"?>
<!-- Generator: Adobe Illustrator 15.0.0, SVG Export Plug-In . SVG Version: 6.00 Build 0)  -->
<!DOCTYPE svg PUBLIC "-//W3C//DTD SVG 1.1//EN" "http://www.w3.org/Graphics/SVG/1.1/DTD/svg11.dtd">
<svg version="1.1" id="Layer_1" xmlns="http://www.w3.org/2000/svg" xmlns:xlink="http://www.w3.org/1999/xlink" x="0px" y="0px"
	 width="38px" height="38px" viewBox="0 0 38 38" enable-background="new 0 0 38 38" xml:space="preserve">
<path fill="#231F20" d="M22.572,5.371C20.624,4.289,18.781,4,18,4V2c1.209,0,3.387,0.425,5.543,1.623
	c2.794,1.552,4.85,3.508,6.36,5.599C28.05,10.688,25.869,12,24,12h-4v-2h4c0.761,0,1.797-0.416,2.985-1.161
	C25.805,7.557,24.365,6.367,22.572,5.371z M30.9,12.7c-0.608,0-1.1,0.38-1.1,1.65c0,1.271,0.491,1.65,1.1,1.65s1.1-0.379,1.1-1.65
	C32,13.08,31.509,12.7,30.9,12.7z M38,23c0-10.119-4.562-18.456-12.515-22.874l-0.971,1.748C33.93,7.105,35.799,16.343,35.983,22
	h-3.136c-0.665-1.322-1.683-2.565-3.229-3.785l-0.623-0.493l-0.621,0.497c-2.454,1.963-4.996,4.716-6.951,7.781H3.821l-0.307-0.754
	C5.902,22.897,6,22.381,6,18v-2h18v-2H6c0-2.983,0.531-4.083,2.471-5.118L7.529,7.118C4.578,8.692,4,10.833,4,14v4
	c0,3.993,0,3.993-2.362,6.282l-0.485,0.47L4.105,32h2.16l-1.629-4h3.84l1.629,4h2.16l-1.629-4h9.629C18.888,30.613,18,33.367,18,36
	h2c0-2.549,1.012-5.346,2.559-8H25.5c0.275,0,0.5,0.225,0.5,0.5V32h2v-3.5c0-1.379-1.121-2.5-2.5-2.5h-1.657
	c1.513-2.153,3.319-4.135,5.155-5.701C31.228,22.267,32,24.315,32,28h2c0-1.444-0.102-2.764-0.412-4H38V23z"/>
</svg>
