<?xml version="1.0" encoding="utf-8"?>
<!-- Generator: Adobe Illustrator 15.0.0, SVG Export Plug-In . SVG Version: 6.00 Build 0)  -->
<!DOCTYPE svg PUBLIC "-//W3C//DTD SVG 1.1//EN" "http://www.w3.org/Graphics/SVG/1.1/DTD/svg11.dtd">
<svg version="1.1" id="Layer_1" xmlns="http://www.w3.org/2000/svg" xmlns:xlink="http://www.w3.org/1999/xlink" x="0px" y="0px"
	 width="38px" height="38px" viewBox="0 0 38 38" enable-background="new 0 0 38 38" xml:space="preserve">
<path fill="#231F20" d="M36.853,16.833l-0.78,2.403c-0.889,2.734-2.545,3.917-3.779,4.429c-0.327,0.136-0.67,0.242-1.023,0.321
	c1.359,1.523,2.045,3.738,1.095,6.663l-0.779,2.404l-2.555,0.749l-1.501,2.195h-2.527c-0.001,0-0.002,0-0.002,0
	c-3.075,0-4.969-1.337-5.999-3.101c-1.029,1.764-2.924,3.102-6.001,3.102h-2.528l-1.5-2.195l-2.553-0.748l-0.781-2.403
	c-0.953-2.932-0.256-5.145,1.108-6.67c-0.357-0.078-0.707-0.18-1.038-0.317c-1.233-0.511-2.891-1.693-3.779-4.426l-0.781-2.404
	l1.625-2.106l-0.078-2.658l2.045-1.486C6.39,9.387,7.961,8.978,9.379,9.07c0.013,0.694,0.115,1.381,0.292,2.052
	c-1.049-0.183-2.312,0.032-3.755,1.081l-1.191,0.865l0.067,2.317l-1.417,1.835l0.455,1.4c0.524,1.612,1.413,2.688,2.642,3.196
	c1.049,0.435,2.347,0.438,3.659,0.013l4.755-1.545l0.618,1.902l-4.755,1.545c-1.115,0.362-4.644,1.889-3.209,6.301l0.455,1.399
	l2.226,0.652l1.308,1.914H13c4.639,0,5-3.827,5-5l0-5h2v5c0.001,1.173,0.364,4.999,4.999,4.999c0.001,0,0.001,0,0.002,0h1.473
	l1.308-1.914l2.226-0.652l0.454-1.4c1.406-4.33-1.966-5.88-3.146-6.278c-0.021-0.007-0.043-0.014-0.064-0.021l-4.756-1.545
	l0.619-1.902l0.011,0.004l4.744,1.54c0.022,0.008,0.045,0.015,0.067,0.022c1.29,0.404,2.561,0.394,3.592-0.034
	c1.229-0.51,2.118-1.585,2.642-3.198l0.454-1.4l-1.417-1.836l0.067-2.317l-1.192-0.866c-3.753-2.726-6.293,0.158-6.983,1.108
	l-2.938,4.043l-1.618-1.175l0.02-0.026l2.92-4.02c0.81-1.115,1.207-2.352,1.117-3.483c-0.104-1.326-0.853-2.504-2.225-3.5
	l-1.19-0.865L19,5.062l-2.183-0.78l-1.19,0.865c-3.752,2.727-1.795,6.036-1.106,6.985l2.939,4.044l-1.618,1.176l-2.939-4.044
	c-1.897-2.613-2.629-6.742,1.549-9.778l2.045-1.486L19,2.938l2.506-0.896l2.044,1.486c2.325,1.689,2.938,3.63,3.043,4.961
	c0.028,0.354,0.023,0.714-0.011,1.076c1.869-0.823,4.187-0.791,6.676,1.017l2.046,1.486l-0.077,2.659L36.853,16.833z M19,18.727
	c-0.703,0-1.273,0.57-1.273,1.273s0.57,1.273,1.273,1.273s1.273-0.57,1.273-1.273S19.703,18.727,19,18.727z M20.101,12
	c0,0.607-0.493,1.1-1.101,1.1s-1.1-0.493-1.1-1.1s0.492-1.1,1.1-1.1S20.101,11.393,20.101,12z M24.593,25.826
	c0.356,0.491,0.248,1.18-0.244,1.537c-0.491,0.356-1.179,0.247-1.536-0.244s-0.249-1.18,0.242-1.537
	C23.547,25.226,24.235,25.334,24.593,25.826z M11.731,16.481c0.578,0.188,0.894,0.81,0.706,1.387
	c-0.188,0.578-0.808,0.894-1.386,0.706c-0.578-0.188-0.894-0.808-0.706-1.386C10.533,16.611,11.154,16.294,11.731,16.481z
	 M26.269,16.482c0.577-0.187,1.199,0.128,1.387,0.708c0.188,0.577-0.129,1.197-0.707,1.385c-0.577,0.188-1.198-0.127-1.387-0.705
	C25.375,17.291,25.69,16.67,26.269,16.482z M13.407,25.826c0.358-0.491,1.046-0.601,1.538-0.243c0.492,0.357,0.6,1.045,0.243,1.536
	c-0.358,0.492-1.045,0.602-1.536,0.243C13.16,27.005,13.051,26.317,13.407,25.826z"/>
</svg>
