<?xml version="1.0" encoding="utf-8"?>
<!-- Generator: Adobe Illustrator 15.0.0, SVG Export Plug-In . SVG Version: 6.00 Build 0)  -->
<!DOCTYPE svg PUBLIC "-//W3C//DTD SVG 1.1//EN" "http://www.w3.org/Graphics/SVG/1.1/DTD/svg11.dtd">
<svg version="1.1" id="Layer_1" xmlns="http://www.w3.org/2000/svg" xmlns:xlink="http://www.w3.org/1999/xlink" x="0px" y="0px"
	 width="38px" height="38px" viewBox="0 0 38 38" enable-background="new 0 0 38 38" xml:space="preserve">
<path fill="#231F20" d="M26,16c-1.727,0-3.215,0.333-4.479,0.907c-0.894-3.014-3.085-5.674-6.734-6.575C15.851,7.935,18.082,6,22,6
	c5.905,0,8,4.386,8,8.143c0,0.154-0.018,0.297-0.028,0.445c0.685,0.216,1.317,0.496,1.915,0.815C31.954,14.995,32,14.578,32,14.143
	C32,9.258,28.871,4,22,4c-4.924,0-7.917,2.704-9.222,6.032C12.522,10.017,12.267,10,12,10C5.129,10,2,15.258,2,20.143
	C2,24.843,6.019,28,12,28c0.754,0,1.476-0.051,2.163-0.147C14.064,27.301,14,26.733,14,26.143c0-0.1,0.009-0.199,0.011-0.3
	C13.34,25.948,12.66,26,12,26c-3.69,0-8-1.534-8-5.857C4,16.386,6.095,12,12,12c4.787,0,7.061,2.883,7.752,5.976
	C17.205,19.949,16,23.116,16,26.143C16,30.843,20.019,34,26,34s10-3.157,10-7.857C36,21.258,32.871,16,26,16z M26,32
	c-3.69,0-8-1.534-8-5.857C18,22.387,20.095,18,26,18s8,4.387,8,8.143C34,30.466,29.69,32,26,32z"/>
</svg>
