<?xml version="1.0" encoding="utf-8"?>
<!-- Generator: Adobe Illustrator 15.0.0, SVG Export Plug-In . SVG Version: 6.00 Build 0)  -->
<!DOCTYPE svg PUBLIC "-//W3C//DTD SVG 1.1//EN" "http://www.w3.org/Graphics/SVG/1.1/DTD/svg11.dtd">
<svg version="1.1" id="Layer_1" xmlns="http://www.w3.org/2000/svg" xmlns:xlink="http://www.w3.org/1999/xlink" x="0px" y="0px"
	 width="38px" height="38px" viewBox="0 0 38 38" enable-background="new 0 0 38 38" xml:space="preserve">
<path fill="#FF8787" d="M0,36h2v2H0V36z M32,38h2v-2h-2V38z M4,38h2v-2H4V38z M0,34h2v-2H0V34z M34,0h-2v2h2V0z M2,4H0v2h2V4z M6,0
	H4v2h2V0z M2,0H0v2h2V0z M36,34h2v-2h-2V34z M36,38h2v-2h-2V38z M34,8h4v22h-4v4h-4v4H8v-4H4v-4H0V8h4V4h4V0h22v4h4V8z M36,0v2h2V0
	H36z M36,6h2V4h-2V6z"/>
<path fill="#F7C768" d="M23,32h-8C8.626,32,4,27.622,4,21.591c0-5.709,4.089-9.013,7.375-11.668C13.857,7.918,16,6.187,16,4h2
	c0,3.142-2.607,5.248-5.368,7.479C9.372,14.113,6,16.837,6,21.591C6,26.542,9.701,30,15,30h8c5.299,0,9-3.458,9-8.409
	c0-4.754-3.372-7.478-6.632-10.112C22.607,9.248,20,7.142,20,4h2c0,2.187,2.144,3.918,4.625,5.923C29.91,12.578,34,15.882,34,21.591
	C34,27.622,29.374,32,23,32z M23.105,17.447l-3-6l1.789-0.895l3,6L23.105,17.447z M14.895,17.447l-1.789-0.895l3-6l1.789,0.895
	L14.895,17.447z"/>
</svg>
