<?xml version="1.0" encoding="utf-8"?>
<!-- Generator: Adobe Illustrator 15.0.0, SVG Export Plug-In . SVG Version: 6.00 Build 0)  -->
<!DOCTYPE svg PUBLIC "-//W3C//DTD SVG 1.1//EN" "http://www.w3.org/Graphics/SVG/1.1/DTD/svg11.dtd">
<svg version="1.1" id="Layer_1" xmlns="http://www.w3.org/2000/svg" xmlns:xlink="http://www.w3.org/1999/xlink" x="0px" y="0px"
	 width="38px" height="38px" viewBox="0 0 38 38" enable-background="new 0 0 38 38" xml:space="preserve">
<path fill="#FF8787" d="M0,36h2v2H0V36z M32,38h2v-2h-2V38z M4,38h2v-2H4V38z M0,34h2v-2H0V34z M34,0h-2v2h2V0z M2,4H0v2h2V4z M6,0
	H4v2h2V0z M2,0H0v2h2V0z M36,34h2v-2h-2V34z M36,38h2v-2h-2V38z M34,8h4v22h-4v4h-4v4H8v-4H4v-4H0V8h4V4h4V0h22v4h4V8z M36,0v2h2V0
	H36z M36,6h2V4h-2V6z"/>
<path fill="#F7C768" d="M30,26v2c-7.29,0-12,3.141-12,8h-2C16,29.925,21.495,26,30,26z M18,30v-2c-5.876,0-9.114,0-11.862-1.832
	L5.886,26H3c-0.805,0-0.988-0.55-1-1v-3.066C5.123,21.519,8,19.154,8,15V8H6v6H5c-2.485,0-5,1.374-5,4h2c0-1.582,1.962-2,3-2h0.914
	C5.46,18.737,3.16,20,1,20H0v5c0,1.206,0.799,3,3,3h2.289c1.213,0.761,2.491,1.23,3.932,1.522C8.42,30.861,8,32.381,8,34h2
	c0-1.556,0.52-2.98,1.463-4.175C13.318,29.99,15.436,30,18,30z M15.293,17.293L12,20.586V16h-2v9.414l6.707-6.707L15.293,17.293z
	 M12,6h-2v7.052c0.608-0.608,1.275-1.223,2-1.822V6z M24,4c-2.695,0-5.448,0.866-8,2.176V4h-2v5.72C17.027,7.622,20.608,6,24,6
	c5.514,0,10,4.486,10,10v8.745L30.043,32h2.277L36,25.255V16C36,9.383,30.617,4,24,4z"/>
</svg>
