<?xml version="1.0" encoding="utf-8"?>
<!-- Generator: Adobe Illustrator 15.0.0, SVG Export Plug-In . SVG Version: 6.00 Build 0)  -->
<!DOCTYPE svg PUBLIC "-//W3C//DTD SVG 1.1//EN" "http://www.w3.org/Graphics/SVG/1.1/DTD/svg11.dtd">
<svg version="1.1" id="Layer_1" xmlns="http://www.w3.org/2000/svg" xmlns:xlink="http://www.w3.org/1999/xlink" x="0px" y="0px"
	 width="38px" height="38px" viewBox="0 0 38 38" enable-background="new 0 0 38 38" xml:space="preserve">
<path fill="#FF8787" d="M0,36h2v2H0V36z M32,38h2v-2h-2V38z M4,38h2v-2H4V38z M0,34h2v-2H0V34z M34,0h-2v2h2V0z M2,4H0v2h2V4z M6,0
	H4v2h2V0z M2,0H0v2h2V0z M36,34h2v-2h-2V34z M36,38h2v-2h-2V38z M34,8h4v22h-4v4h-4v4H8v-4H4v-4H0V8h4V4h4V0h22v4h4V8z M36,0v2h2V0
	H36z M36,6h2V4h-2V6z"/>
<path fill="#F7C768" d="M11.503,29.864l-1.007-1.729c3.825-2.227,6.792-4.916,8.961-8.136H13l-0.5-1.866
	c2.185-1.261,3.69-4.363,4.405-6.134H9v-2h20v2h-9.952c-0.46,1.265-1.576,3.956-3.356,6h4.973c0.678-1.258,1.25-2.589,1.72-3.997
	l1.896,0.633C22.113,21.139,17.934,26.12,11.503,29.864z M18.641,29.755l-1.281-1.535c3.281-2.736,5.734-5.892,7.5-9.645
	l1.811,0.852c-0.862,1.832-1.876,3.53-3.056,5.113c1.215,0.557,3.097,1.665,5.108,3.77l-1.445,1.383
	c-2.124-2.222-4.057-3.175-4.964-3.532C21.214,27.433,19.993,28.627,18.641,29.755z M20.445,9.832l-3-2l1.109-1.664l3,2
	L20.445,9.832z M19,2C9.626,2,2,9.626,2,19s7.626,17,17,17c0.337,0,0.667-0.031,1-0.051v-2C19.668,33.972,19.337,34,19,34
	c-8.271,0-15-6.729-15-15c0-8.271,6.729-15,15-15c8.271,0,15,6.729,15,15c0,7.244-5.161,13.304-12,14.697v2.021
	c7.945-1.423,14-8.37,14-16.719C36,9.626,28.374,2,19,2z"/>
</svg>
