<?xml version="1.0" encoding="utf-8"?>
<!-- Generator: Adobe Illustrator 15.0.0, SVG Export Plug-In . SVG Version: 6.00 Build 0)  -->
<!DOCTYPE svg PUBLIC "-//W3C//DTD SVG 1.1//EN" "http://www.w3.org/Graphics/SVG/1.1/DTD/svg11.dtd">
<svg version="1.1" id="Layer_1" xmlns="http://www.w3.org/2000/svg" xmlns:xlink="http://www.w3.org/1999/xlink" x="0px" y="0px"
	 width="38px" height="38px" viewBox="0 0 38 38" enable-background="new 0 0 38 38" xml:space="preserve">
<path fill="#FF8787" d="M0,36h2v2H0V36z M32,38h2v-2h-2V38z M4,38h2v-2H4V38z M0,34h2v-2H0V34z M34,0h-2v2h2V0z M2,4H0v2h2V4z M6,0
	H4v2h2V0z M2,0H0v2h2V0z M36,34h2v-2h-2V34z M36,38h2v-2h-2V38z M34,8h4v22h-4v4h-4v4H8v-4H4v-4H0V8h4V4h4V0h22v4h4V8z M36,0v2h2V0
	H36z M36,6h2V4h-2V6z"/>
<path fill="#F7C768" d="M36,19c0,8.349-6.055,15.296-14,16.719v-2.021C28.839,32.304,34,26.244,34,19c0-8.271-6.729-15-15-15
	C10.729,4,4,10.729,4,19c0,8.271,6.729,15,15,15c0.337,0,0.668-0.028,1-0.051v2C19.667,35.969,19.337,36,19,36
	C9.626,36,2,28.374,2,19S9.626,2,19,2S36,9.626,36,19z M17.515,28.857L16,28V18h-2.452c-0.537,4.106-1.646,7.313-3.811,9.676
	l-1.475-1.352C11.375,22.929,12,17.178,12,9V8h14v2H13.997c-0.015,2.162-0.082,4.161-0.236,6H26v2h-4.533
	c0.612,1.366,1.561,2.984,2.851,4.442l2.467-1.479l1.029,1.715l-2.021,1.213c1.095,0.926,2.366,1.695,3.815,2.156l-0.605,1.906
	c-4.981-1.585-8.267-6.2-9.706-9.953H18v8.233l2.56-1.536l1.029,1.715L17.515,28.857z M24,14h-8v-2h8V14z"/>
</svg>
