<?xml version="1.0" encoding="utf-8"?>
<!-- Generator: Adobe Illustrator 15.0.0, SVG Export Plug-In . SVG Version: 6.00 Build 0)  -->
<!DOCTYPE svg PUBLIC "-//W3C//DTD SVG 1.1//EN" "http://www.w3.org/Graphics/SVG/1.1/DTD/svg11.dtd">
<svg version="1.1" id="Layer_1" xmlns="http://www.w3.org/2000/svg" xmlns:xlink="http://www.w3.org/1999/xlink" x="0px" y="0px"
	 width="38px" height="38px" viewBox="0 0 38 38" enable-background="new 0 0 38 38" xml:space="preserve">
<path fill="#FF8787" d="M0,36h2v2H0V36z M32,38h2v-2h-2V38z M4,38h2v-2H4V38z M0,34h2v-2H0V34z M34,0h-2v2h2V0z M2,4H0v2h2V4z M6,0
	H4v2h2V0z M2,0H0v2h2V0z M36,34h2v-2h-2V34z M36,38h2v-2h-2V38z M34,8h4v22h-4v4h-4v4H8v-4H4v-4H0V8h4V4h4V0h22v4h4V8z M36,0v2h2V0
	H36z M36,6h2V4h-2V6z"/>
<path fill="#F7C768" d="M19,30c-1.654,0-3-1.346-3-3v-1h2v1c0,0.552,0.449,1,1,1s1-0.448,1-1v-1h2v1C22,28.654,20.654,30,19,30z
	 M15,20c-0.552,0-1.071,0.448-1.071,2s0.519,2,1.071,2s1.071-0.448,1.071-2S15.552,20,15,20z M23,20c-0.553,0-1.071,0.448-1.071,2
	s0.519,2,1.071,2s1.071-0.448,1.071-2S23.553,20,23,20z M24,16H14v-4.235c-1.42,1.365-2,3.336-2,5.235v1h14v-1
	c0-1.899-0.58-3.871-2-5.235V16z M34,19v3.5c0,1.93-1.57,3.5-3.5,3.5c-0.225,0-0.446-0.021-0.663-0.062
	c-0.411,2.295-1.53,3.623-2.531,4.553C25.424,32.238,22.127,34,19,34c-3.127,0-6.425-1.762-8.306-3.509
	c-1.001-0.93-2.12-2.258-2.532-4.554C7.947,25.979,7.725,26,7.5,26C5.57,26,4,24.43,4,22.5V19c0-1.654,1.346-3,3-3
	c0.36,0,0.705,0.063,1.024,0.18c0.047-0.773,0.16-1.515,0.335-2.221C5.904,13.644,4,11.54,4,9c0-2.757,2.243-5,5-5
	c2.109,0,3.939,1.324,4.666,3.203C15.211,6.426,17.014,6,19,6c0.341,0,0.67,0.029,1,0.054v1.992C19.676,8.019,19.345,8,19,8
	c-6.217,0-9,4.52-9,9v7c0,2.747,1.039,4.082,2.056,5.026C13.598,30.458,16.429,32,19,32c2.57,0,5.401-1.542,6.944-2.974
	C26.961,28.082,28,26.746,28,24v-7c0-3.68-1.883-7.382-6-8.588V6.359c0.828,0.202,1.611,0.48,2.334,0.844
	C25.061,5.324,26.891,4,29,4c2.757,0,5,2.243,5,5c0,2.54-1.904,4.644-4.359,4.959c0.175,0.707,0.288,1.448,0.335,2.221
	C30.295,16.063,30.641,16,31,16C32.654,16,34,17.346,34,19z M8,19c0-0.551-0.449-1-1-1s-1,0.449-1,1v3.5C6,23.327,6.673,24,7.5,24
	c0.173,0,0.341-0.028,0.5-0.085V19z M9.042,12c0.673-1.465,1.653-2.713,2.879-3.686C11.609,6.983,10.408,6,9,6C7.346,6,6,7.346,6,9
	s1.346,3,3,3C9.014,12,9.028,12,9.042,12z M29,12c1.654,0,3-1.346,3-3s-1.346-3-3-3c-1.408,0-2.609,0.983-2.921,2.314
	c1.227,0.972,2.206,2.221,2.879,3.686C28.972,12,28.986,12,29,12z M32,19c0-0.551-0.448-1-1-1s-1,0.449-1,1v4.916
	C30.158,23.972,30.327,24,30.5,24c0.827,0,1.5-0.673,1.5-1.5V19z"/>
</svg>
