<?xml version="1.0" encoding="utf-8"?>
<!-- Generator: Adobe Illustrator 15.0.0, SVG Export Plug-In . SVG Version: 6.00 Build 0)  -->
<!DOCTYPE svg PUBLIC "-//W3C//DTD SVG 1.1//EN" "http://www.w3.org/Graphics/SVG/1.1/DTD/svg11.dtd">
<svg version="1.1" id="Layer_1" xmlns="http://www.w3.org/2000/svg" xmlns:xlink="http://www.w3.org/1999/xlink" x="0px" y="0px"
	 width="38px" height="38px" viewBox="0 0 38 38" enable-background="new 0 0 38 38" xml:space="preserve">
<path fill="#FF8787" d="M0,36h2v2H0V36z M32,38h2v-2h-2V38z M4,38h2v-2H4V38z M0,34h2v-2H0V34z M34,0h-2v2h2V0z M2,4H0v2h2V4z M6,0
	H4v2h2V0z M2,0H0v2h2V0z M36,34h2v-2h-2V34z M36,38h2v-2h-2V38z M34,8h4v22h-4v4h-4v4H8v-4H4v-4H0V8h4V4h4V0h22v4h4V8z M36,0v2h2V0
	H36z M36,6h2V4h-2V6z"/>
<path fill="#F7C768" d="M38,0v15c0,1.237,0,5-3.417,5H34.07l-2.908-4.047c-0.844,1.852-1.497,3.824-1.985,6.047h4.271
	C34.783,22,36,23.217,36,24.553c0,2.25-2.575,5.726-2.869,6.114l-1.596-1.205C32.488,28.198,34,25.747,34,24.553
	C34,24.331,33.669,24,33.447,24h-4.651C28.245,27.317,28,31.193,28,36h-2c0-10.538,1.154-16.833,4.115-22.453l0.754-1.43
	l4.186,5.826C35.591,17.779,36,17.166,36,15V0H38z M32,6h2V0h-2v3c-0.645-0.555-1.417-1-3-1h-5v2h5C30.398,4,32,5.518,32,6z M28,6
	h-8v2h6L28,6z M11.166,28.446L14.869,34h2.403l-3.527-5.29L18.513,24h6.229c0.104-0.688,0.222-1.352,0.35-2h-7.399L11.166,28.446z
	 M15.247,21.603l-1.405-1.422l-4.914,4.854C6.447,21.193,6,19.661,6,17.416C6,14.791,7.402,12,10,12h12l2-2H10
	c-0.249,0-0.492,0.021-0.731,0.055C8.718,9.257,7.594,8,5.961,8C2.448,8,0,12.962,0,17.416c0,2.604,0.599,5.071,1.827,7.521
	L0.23,26.861l1.539,1.277l2.454-2.959L3.9,24.584C3.084,23.087,2,20.715,2,17.416C2,13.673,3.962,10,5.961,10
	c0.491,0,0.958,0.367,1.315,0.762C5.302,11.948,4,14.417,4,17.416c0,2.902,0.731,4.859,3.475,9.054l-2.052,2.027L10.424,36h2.403
	l-4.826-7.239L15.247,21.603z"/>
</svg>
