<?xml version="1.0" encoding="utf-8"?>
<!-- Generator: Adobe Illustrator 15.0.0, SVG Export Plug-In . SVG Version: 6.00 Build 0)  -->
<!DOCTYPE svg PUBLIC "-//W3C//DTD SVG 1.1//EN" "http://www.w3.org/Graphics/SVG/1.1/DTD/svg11.dtd">
<svg version="1.1" id="Layer_1" xmlns="http://www.w3.org/2000/svg" xmlns:xlink="http://www.w3.org/1999/xlink" x="0px" y="0px"
	 width="38px" height="38px" viewBox="0 0 38 38" enable-background="new 0 0 38 38" xml:space="preserve">
<path fill="#FF8787" d="M0,36h2v2H0V36z M32,38h2v-2h-2V38z M4,38h2v-2H4V38z M0,34h2v-2H0V34z M34,0h-2v2h2V0z M2,4H0v2h2V4z M6,0
	H4v2h2V0z M2,0H0v2h2V0z M36,34h2v-2h-2V34z M36,38h2v-2h-2V38z M34,8h4v22h-4v4h-4v4H8v-4H4v-4H0V8h4V4h4V0h22v4h4V8z M36,0v2h2V0
	H36z M36,6h2V4h-2V6z"/>
<path fill="#F7C768" d="M38,23.586V34h-2v-2.636c-0.606-0.683-2.591-2.613-6-3.194V34h-2v-6h-4v8h-2V26h6
	c3.748,0,6.404,1.435,8,2.667v-4.295c-1.25-1.619-1.919-5.101-1.993-10.372H26c-2.855,0-4.721-0.973-6.524-1.913
	c-0.328-0.171-0.658-0.342-0.996-0.51c-0.996,0.965-2.457,1.667-4.295,2.06c0.907,0.853,2.259,1.934,3.951,2.703l-0.828,1.82
	c-2.842-1.292-4.809-3.3-5.597-4.198C11.316,13.985,10.914,14,10.498,14c-1.546,0-3.126-0.195-4.578-0.592l-3.452,6.914l2.545,1.999
	C6.18,21.507,8.778,20,12,20v2c-3.562,0-6.322,2.319-6.349,2.343l-0.623,0.53l-5.078-3.984l4.072-8.157
	C1.673,11.669,0,9.922,0,7.417C0,3.333,4.462,2,6,2v2C5.476,4,2,4.637,2,7.417C2,10.779,7.082,12,10.498,12
	c2.52,0,4.543-0.482,5.852-1.322c-1.585-0.532-3.529-0.858-6.284-0.68l-0.13-1.996c3.558-0.227,5.943,0.316,7.846,1.07
	C17.92,8.737,18,8.38,18,8c0-1.813-2.146-2.831-2.167-2.841l0.831-1.819C16.8,3.401,20,4.892,20,8c0,0.689-0.127,1.33-0.371,1.916
	c0.262,0.133,0.519,0.266,0.771,0.397C22.136,11.219,23.635,12,26,12h10v1c0,7.967,1.307,9.893,1.707,10.293L38,23.586z
	 M10.933,24.519l-3.666,4.399l3.221,5.115l1.692-1.066l-2.446-3.885l1.375-1.649C13.259,29.138,16.244,30,20,30v-2
	c-3.707,0-6.497-0.911-8.293-2.707L10.933,24.519z"/>
</svg>
