<?xml version="1.0" encoding="utf-8"?>
<!-- Generator: Adobe Illustrator 15.0.0, SVG Export Plug-In . SVG Version: 6.00 Build 0)  -->
<!DOCTYPE svg PUBLIC "-//W3C//DTD SVG 1.1//EN" "http://www.w3.org/Graphics/SVG/1.1/DTD/svg11.dtd">
<svg version="1.1" id="Layer_1" xmlns="http://www.w3.org/2000/svg" xmlns:xlink="http://www.w3.org/1999/xlink" x="0px" y="0px"
	 width="38px" height="38px" viewBox="0 0 38 38" enable-background="new 0 0 38 38" xml:space="preserve">
<path fill="#FF8787" d="M0,36h2v2H0V36z M32,38h2v-2h-2V38z M4,38h2v-2H4V38z M0,34h2v-2H0V34z M34,0h-2v2h2V0z M2,4H0v2h2V4z M6,0
	H4v2h2V0z M2,0H0v2h2V0z M36,34h2v-2h-2V34z M36,38h2v-2h-2V38z M34,8h4v22h-4v4h-4v4H8v-4H4v-4H0V8h4V4h4V0h22v4h4V8z M36,0v2h2V0
	H36z M36,6h2V4h-2V6z"/>
<path fill="#F7C768" d="M36,19c0,8.349-6.055,15.296-14,16.719v-2.021C28.839,32.304,34,26.244,34,19c0-8.271-6.729-15-15-15
	C10.729,4,4,10.729,4,19c0,8.271,6.729,15,15,15c0.337,0,0.668-0.028,1-0.051v2C19.667,35.969,19.337,36,19,36
	C9.626,36,2,28.374,2,19S9.626,2,19,2S36,9.626,36,19z M30,26h-5.921c0.519-6.413,1.6-13.264,2.628-14.293L26,10H12v2h3.977
	c-0.072,1.698-0.304,3.858-0.585,6H12v2h3.116c-0.366,2.54-0.752,4.829-0.955,6H8v2h22V26z M17.14,20h5.559
	c-0.313,2.387-0.516,4.635-0.625,6h-5.881C16.417,24.692,16.791,22.451,17.14,20z M17.979,12h6.373
	c-0.564,1.526-1.017,3.733-1.369,6h-5.571C17.686,15.866,17.91,13.719,17.979,12z"/>
</svg>
