<?xml version="1.0" encoding="utf-8"?>
<!-- Generator: Adobe Illustrator 15.0.0, SVG Export Plug-In . SVG Version: 6.00 Build 0)  -->
<!DOCTYPE svg PUBLIC "-//W3C//DTD SVG 1.1//EN" "http://www.w3.org/Graphics/SVG/1.1/DTD/svg11.dtd">
<svg version="1.1" id="Layer_1" xmlns="http://www.w3.org/2000/svg" xmlns:xlink="http://www.w3.org/1999/xlink" x="0px" y="0px"
	 width="38px" height="38px" viewBox="0 0 38 38" enable-background="new 0 0 38 38" xml:space="preserve">
<path fill="#FF8787" d="M0,36h2v2H0V36z M32,38h2v-2h-2V38z M4,38h2v-2H4V38z M0,34h2v-2H0V34z M34,0h-2v2h2V0z M2,4H0v2h2V4z M6,0
	H4v2h2V0z M2,0H0v2h2V0z M36,34h2v-2h-2V34z M36,38h2v-2h-2V38z M34,8h4v22h-4v4h-4v4H8v-4H4v-4H0V8h4V4h4V0h22v4h4V8z M36,0v2h2V0
	H36z M36,6h2V4h-2V6z"/>
<path fill="#F7C768" d="M7.809,37.588l-1.617-1.176c3.969-5.457,6.877-6.353,15.728-6.409c0.794-1.16,0.603-2.088,0.348-3.329
	C22.136,26.038,22,25.381,22,24.654c0-2.559,0.94-3.883,2.353-5.083l1.295,1.523C24.555,22.024,24,22.83,24,24.654
	c0,0.523,0.109,1.054,0.225,1.616c0.219,1.058,0.475,2.302-0.042,3.691C30.357,29.581,34,26.365,34,21.196
	C34,15.524,30.711,12,25.417,12c-3.104,0-5.689,1.102-6.464,1.47c-0.382,0.692-0.73,1.124-0.762,1.163l-1.549-1.266L17.417,14
	l-0.776-0.63C16.654,13.353,18,11.663,18,9.75c0-1.292-0.332-2.255-0.986-2.86C16.364,6.287,15.352,5.977,14,5.964V12h-2V4.074
	l0.923-0.071c2.401-0.183,4.234,0.293,5.45,1.419C19.453,6.422,20,7.878,20,9.75c0,0.412-0.042,0.813-0.114,1.195
	C21.269,10.478,23.22,10,25.417,10C31.846,10,36,14.395,36,21.196C36,26.419,32.563,32,22.917,32
	C13.318,32,11.341,32.731,7.809,37.588z M8.518,28.057c-0.447,0-0.905-0.021-1.374-0.061l-0.82-0.069l-0.09-0.817
	C6.225,27.021,6,24.954,6,23.417c0-3.844,0.796-6.639,2-9.613V4h2v10.197l-0.075,0.182C8.737,17.284,8,19.809,8,23.417
	c0,0.849,0.078,1.909,0.142,2.634c3.699,0.104,6.413-1.314,8.255-4.323l1.782,0.894c-0.417,1.044-0.422,1.914-0.014,2.518
	C18.525,25.67,19.228,26,20,26v2c-1.448,0-2.753-0.65-3.491-1.74c-0.173-0.256-0.34-0.571-0.461-0.948
	C14.073,27.137,11.553,28.056,8.518,28.057z M14.1,19.5c0-1.27-0.491-1.65-1.1-1.65s-1.1,0.38-1.1,1.65c0,1.271,0.491,1.65,1.1,1.65
	S14.1,20.771,14.1,19.5z"/>
</svg>
