<?xml version="1.0" encoding="utf-8"?>
<!-- Generator: Adobe Illustrator 15.0.0, SVG Export Plug-In . SVG Version: 6.00 Build 0)  -->
<!DOCTYPE svg PUBLIC "-//W3C//DTD SVG 1.1//EN" "http://www.w3.org/Graphics/SVG/1.1/DTD/svg11.dtd">
<svg version="1.1" id="Layer_1" xmlns="http://www.w3.org/2000/svg" xmlns:xlink="http://www.w3.org/1999/xlink" x="0px" y="0px"
	 width="38px" height="38px" viewBox="0 0 38 38" enable-background="new 0 0 38 38" xml:space="preserve">
<path fill="#FF8787" d="M0,36h2v2H0V36z M32,38h2v-2h-2V38z M4,38h2v-2H4V38z M0,34h2v-2H0V34z M34,0h-2v2h2V0z M2,4H0v2h2V4z M6,0
	H4v2h2V0z M2,0H0v2h2V0z M36,34h2v-2h-2V34z M36,38h2v-2h-2V38z M34,8h4v22h-4v4h-4v4H8v-4H4v-4H0V8h4V4h4V0h22v4h4V8z M36,0v2h2V0
	H36z M36,6h2V4h-2V6z"/>
<path fill="#F7C768" d="M30,5.586V36H8V6h18v2H10v26h18V6.414L23.586,2h-9.172l-2,2H9.586l4-4h10.828L30,5.586z M20,20h-2v2h2V20z
	 M16.101,14h5.798L26,18.101v5.799L21.899,28h-5.798L12,23.899v-5.799L16.101,14z M16.929,16L14,18.929v4.143L16.929,26h4.142
	L24,23.071v-4.143L21.071,16H16.929z"/>
</svg>
