<?xml version="1.0" encoding="utf-8"?>
<!-- Generator: Adobe Illustrator 15.0.0, SVG Export Plug-In . SVG Version: 6.00 Build 0)  -->
<!DOCTYPE svg PUBLIC "-//W3C//DTD SVG 1.1//EN" "http://www.w3.org/Graphics/SVG/1.1/DTD/svg11.dtd">
<svg version="1.1" id="Layer_1" xmlns="http://www.w3.org/2000/svg" xmlns:xlink="http://www.w3.org/1999/xlink" x="0px" y="0px"
	 width="38px" height="38px" viewBox="0 0 38 38" enable-background="new 0 0 38 38" xml:space="preserve">
<path fill="#FF8787" d="M0,36h2v2H0V36z M32,38h2v-2h-2V38z M4,38h2v-2H4V38z M0,34h2v-2H0V34z M34,0h-2v2h2V0z M2,4H0v2h2V4z M6,0
	H4v2h2V0z M2,0H0v2h2V0z M36,34h2v-2h-2V34z M36,38h2v-2h-2V38z M34,8h4v22h-4v4h-4v4H8v-4H4v-4H0V8h4V4h4V0h22v4h4V8z M36,0v2h2V0
	H36z M36,6h2V4h-2V6z"/>
<path fill="#F7C768" d="M19.163,14.002c-0.223-0.682-0.488-1.353-0.792-2.009c7.417-0.071,11.331-1.499,13.231-8.739L31.933,2
	h-1.297c-7.428,0-11.463,1.193-13.522,7.692c-1.452-2.262-3.375-4.215-5.599-5.55l-1.029,1.715c3.19,1.914,5.39,5.054,6.551,8.194
	C6.328,14.602,4,19.69,4,24c0,4.562,2.603,10,15,10s15-5.438,15-10C34,19.458,31.417,14.051,19.163,14.002z M29.293,4.014
	c-1.574,4.701-4.284,5.839-10.181,5.972C20.687,5.285,23.396,4.147,29.293,4.014z M19,32c-8.626,0-13-2.691-13-8
	c0-5.019,3.915-7.695,11.631-7.973c0.157,0.674,0.265,1.336,0.32,1.973H16v2h6v-2h-2.037c-0.046-0.662-0.14-1.325-0.271-1.986
	C27.852,16.158,32,18.838,32,24C32,29.309,27.626,32,19,32z M26.15,23c0,0.636-0.515,1.15-1.15,1.15s-1.15-0.515-1.15-1.15
	s0.515-1.15,1.15-1.15S26.15,22.364,26.15,23z M28.15,27c0,0.636-0.515,1.15-1.15,1.15s-1.15-0.515-1.15-1.15s0.515-1.15,1.15-1.15
	S28.15,26.364,28.15,27z M24.15,29c0,0.636-0.515,1.15-1.15,1.15s-1.15-0.515-1.15-1.15s0.515-1.15,1.15-1.15S24.15,28.364,24.15,29
	z"/>
</svg>
